999
Created with Floor Plan Creator on Android
0
SECTION
2
HEADER
9
$ACADVER
1
AC1021
9
$HANDSEED
5
20000
9
$DWGCODEPAGE
3
ANSI_1250
9
$INSBASE
10
0
20
0
30
0
9
$EXTMIN
10
0
20
0
30
0
9
$EXTMAX
10
886.23285
20
1739.60779
30
0
9
$LIMMIN
10
0
20
0
9
$LIMMAX
10
420
20
297
9
$ORTHOMODE
70
0
9
$LTSCALE
40
1
9
$TEXTSTYLE
7
STANDARD
9
$CLAYER
8
symbols
9
$DIMASZ
40
2.5
9
$DIMLFAC
40
1
9
$DIMSCALE
40
1
9
$DIMEXO
40
0.625
9
$DIMEXE
40
1.25
9
$DIMTXT
40
2.5
9
$DIMTSZ
40
0
9
$DIMAUNIT
70
0
9
$DIMADEC
70
0
9
$DIMLUNIT
70
2
9
$DIMSTYLE
2
STANDARD
9
$DIMGAP
40
1
9
$DIMTIH
70
0
9
$LUNITS
70
2
9
$LUPREC
70
4
9
$AUNITS
70
0
9
$AUPREC
70
2
9
$SPLINESEGS
70
8
9
$GRIDMODE
70
1
9
$SNAPSTYLE
70
0
9
$PINSBASE
10
0
20
0
30
0
9
$PLIMMIN
10
0
20
0
9
$PLIMMAX
10
210
20
297
9
$INSUNITS
70
5
9
$MEASUREMENT
70
0
9
$PSVPSCALE
40
1
0
ENDSEC
0
SECTION
2
CLASSES
0
ENDSEC
0
SECTION
2
TABLES
0
TABLE
2
VPORT
5
8
330
0
100
AcDbSymbolTable
70
1
0
VPORT
5
31
330
2
100
AcDbSymbolTableRecord
100
AcDbViewportTableRecord
2
*ACTIVE
70
0
10
0
20
0
11
1
21
1
12
160.46875
22
81.40625
13
0
23
0
14
10
24
10
15
10
25
10
16
0
26
0
36
1
17
0
27
0
37
0
40
190
41
1.95394736842
42
50
43
0
44
0
50
0
51
0
71
0
72
100
73
1
74
3
75
0
76
1
77
0
78
0
281
0
65
1
110
0
120
0
130
0
111
1
121
0
131
0
112
0
122
1
132
0
79
0
146
0
348
10020
60
7
61
5
292
1
282
1
141
0
142
0
63
250
421
3358443
0
ENDTAB
0
TABLE
2
LTYPE
5
5
330
0
100
AcDbSymbolTable
70
4
0
LTYPE
5
14
330
5
100
AcDbSymbolTableRecord
100
AcDbLinetypeTableRecord
2
ByBlock
70
0
3

72
65
73
0
40
0
0
LTYPE
5
15
330
5
100
AcDbSymbolTableRecord
100
AcDbLinetypeTableRecord
2
ByLayer
70
0
3

72
65
73
0
40
0
0
LTYPE
5
16
330
5
100
AcDbSymbolTableRecord
100
AcDbLinetypeTableRecord
2
Continuous
70
0
3
Solid line
72
65
73
0
40
0
0
LTYPE
5
32
330
5
100
AcDbSymbolTableRecord
100
AcDbLinetypeTableRecord
2
DOT
70
0
3
Dot . . . . . . . . . . . . . . . . . . . . . .
72
65
73
2
40
6.35
49
0
74
0
49
-6.35
74
0
0
LTYPE
5
33
330
5
100
AcDbSymbolTableRecord
100
AcDbLinetypeTableRecord
2
DOT2
70
0
3
Dot (.5x) .....................................
72
65
73
2
40
3.175
49
0
74
0
49
-3.175
74
0
0
LTYPE
5
34
330
5
100
AcDbSymbolTableRecord
100
AcDbLinetypeTableRecord
2
DOTX2
70
0
3
Dot (2x) .  .  .  .  .  .  .  .  .  .  .  .  .
72
65
73
2
40
12.7
49
0
74
0
49
-12.7
74
0
0
LTYPE
5
35
330
5
100
AcDbSymbolTableRecord
100
AcDbLinetypeTableRecord
2
DASHED
70
0
3
Dot . . . . . . . . . . . . . . . . . . . . . .
72
65
73
2
40
19.05
49
12.7
74
0
49
-6.35
74
0
0
LTYPE
5
36
330
5
100
AcDbSymbolTableRecord
100
AcDbLinetypeTableRecord
2
DASHED2
70
0
3
Dashed (.5x) _ _ _ _ _ _ _ _ _ _ _ _ _ _ _ _ _
72
65
73
2
40
9.525
49
6.35
74
0
49
-3.175
74
0
0
LTYPE
5
37
330
5
100
AcDbSymbolTableRecord
100
AcDbLinetypeTableRecord
2
DASHEDX2
70
0
3
Dashed (2x) ____  ____  ____  ____  ____  ___
72
65
73
2
40
38.1
49
25.4
74
0
49
-12.7
74
0
0
LTYPE
5
38
330
5
100
AcDbSymbolTableRecord
100
AcDbLinetypeTableRecord
2
DASHDOT
70
0
3
Dash dot __ . __ . __ . __ . __ . __ . __ . __
72
65
73
4
40
25.4
49
12.7
74
0
49
-6.35
74
0
49
0
74
0
49
-6.35
74
0
0
LTYPE
5
39
330
5
100
AcDbSymbolTableRecord
100
AcDbLinetypeTableRecord
2
DASHDOT2
70
0
3
Dash dot (.5x) _._._._._._._._._._._._._._._.
72
65
73
4
40
12.7
49
6.35
74
0
49
-3.175
74
0
49
0
74
0
49
-3.175
74
0
0
LTYPE
5
3A
330
5
100
AcDbSymbolTableRecord
100
AcDbLinetypeTableRecord
2
DASHDOTX2
70
0
3
Dash dot (2x) ____  .  ____  .  ____  .  ___
72
65
73
4
40
50.8
49
25.4
74
0
49
-12.7
74
0
49
0
74
0
49
-12.7
74
0
0
LTYPE
5
3B
330
5
100
AcDbSymbolTableRecord
100
AcDbLinetypeTableRecord
2
DIVIDE
70
0
3
Divide ____ . . ____ . . ____ . . ____ . . ____
72
65
73
6
40
31.75
49
12.7
74
0
49
-6.35
74
0
49
0
74
0
49
-6.35
74
0
49
0
74
0
49
-6.35
74
0
0
LTYPE
5
3C
330
5
100
AcDbSymbolTableRecord
100
AcDbLinetypeTableRecord
2
DIVIDE2
70
0
3
Divide (.5x) __..__..__..__..__..__..__..__.._
72
65
73
6
40
15.875
49
6.35
74
0
49
-3.175
74
0
49
0
74
0
49
-3.175
74
0
49
0
74
0
49
-3.175
74
0
0
LTYPE
5
3D
330
5
100
AcDbSymbolTableRecord
100
AcDbLinetypeTableRecord
2
DIVIDEX2
70
0
3
Divide (2x) ________  .  .  ________  .  .  _
72
65
73
6
40
63.5
49
25.4
74
0
49
-12.7
74
0
49
0
74
0
49
-12.7
74
0
49
0
74
0
49
-12.7
74
0
0
LTYPE
5
3E
330
5
100
AcDbSymbolTableRecord
100
AcDbLinetypeTableRecord
2
BORDER
70
0
3
Border __ __ . __ __ . __ __ . __ __ . __ __ .
72
65
73
6
40
44.45
49
12.7
74
0
49
-6.35
74
0
49
12.7
74
0
49
-6.35
74
0
49
0
74
0
49
-6.35
74
0
0
LTYPE
5
3F
330
5
100
AcDbSymbolTableRecord
100
AcDbLinetypeTableRecord
2
BORDER2
70
0
3
Border (.5x) __.__.__.__.__.__.__.__.__.__.__.
72
65
73
6
40
22.225
49
6.35
74
0
49
-3.175
74
0
49
6.35
74
0
49
-3.175
74
0
49
0
74
0
49
-3.175
74
0
0
LTYPE
5
40
330
5
100
AcDbSymbolTableRecord
100
AcDbLinetypeTableRecord
2
BORDERX2
70
0
3
Border (2x) ____  ____  .  ____  ____  .  ___
72
65
73
6
40
88.9
49
25.4
74
0
49
-12.7
74
0
49
25.4
74
0
49
-12.7
74
0
49
0
74
0
49
-12.7
74
0
0
LTYPE
5
41
330
5
100
AcDbSymbolTableRecord
100
AcDbLinetypeTableRecord
2
CENTER
70
0
3
Center ____ _ ____ _ ____ _ ____ _ ____ _ ____
72
65
73
4
40
50.8
49
31.75
74
0
49
-6.35
74
0
49
6.35
74
0
49
-6.35
74
0
0
LTYPE
5
42
330
5
100
AcDbSymbolTableRecord
100
AcDbLinetypeTableRecord
2
CENTER2
70
0
3
Center (.5x) ___ _ ___ _ ___ _ ___ _ ___ _ ___
72
65
73
4
40
28.575
49
19.05
74
0
49
-3.175
74
0
49
3.175
74
0
49
-3.175
74
0
0
LTYPE
5
43
330
5
100
AcDbSymbolTableRecord
100
AcDbLinetypeTableRecord
2
CENTERX2
70
0
3
Center (2x) ________  __  ________  __  _____
72
65
73
4
40
101.6
49
63.5
74
0
49
-12.7
74
0
49
12.7
74
0
49
-12.7
74
0
0
ENDTAB
0
TABLE
2
LAYER
5
2
330
0
100
AcDbSymbolTable
70
1
0
LAYER
5
10
330
2
100
AcDbSymbolTableRecord
100
AcDbLayerTableRecord
2
0
70
0
62
7
6
CONTINUOUS
370
0
390
F
0
LAYER
5
44
330
2
100
AcDbSymbolTableRecord
100
AcDbLayerTableRecord
2
walls
70
0
62
2
6
CONTINUOUS
370
0
390
F
0
LAYER
5
45
330
2
100
AcDbSymbolTableRecord
100
AcDbLayerTableRecord
2
text
70
0
62
7
6
CONTINUOUS
370
0
390
F
0
LAYER
5
46
330
2
100
AcDbSymbolTableRecord
100
AcDbLayerTableRecord
2
symbols
70
0
62
3
6
CONTINUOUS
370
0
390
F
0
LAYER
5
47
330
2
100
AcDbSymbolTableRecord
100
AcDbLayerTableRecord
2
dimensions
70
0
62
7
6
CONTINUOUS
370
0
390
F
0
ENDTAB
0
TABLE
2
STYLE
5
3
330
0
100
AcDbSymbolTable
70
3
0
STYLE
5
48
330
2
100
AcDbSymbolTableRecord
100
AcDbTextStyleTableRecord
2
standard
70
0
40
0
41
1
50
0
71
0
42
1
3
standard
4

0
ENDTAB
0
TABLE
2
VIEW
5
6
330
0
100
AcDbSymbolTable
70
0
0
ENDTAB
0
TABLE
2
UCS
5
7
330
0
100
AcDbSymbolTable
70
0
0
ENDTAB
0
TABLE
2
APPID
5
9
330
0
100
AcDbSymbolTable
70
1
0
APPID
5
12
330
9
100
AcDbSymbolTableRecord
100
AcDbRegAppTableRecord
2
ACAD
70
0
0
ENDTAB
0
TABLE
2
DIMSTYLE
5
A
330
0
100
AcDbSymbolTable
70
1
100
AcDbDimStyleTable
71
1
0
DIMSTYLE
105
49
330
A
100
AcDbSymbolTableRecord
100
AcDbDimStyleTableRecord
2
Standard
70
0
40
1
41
2.5
42
0.625
43
0.38
44
1.25
45
0
46
0
47
0
48
0
140
2.5
141
0.09
142
0
143
25.4
144
1
145
0
146
1
147
0.625
148
0
71
0
72
0
73
0
74
1
75
0
76
0
77
0
78
0
79
0
170
0
171
2
172
0
173
0
174
0
175
0
176
0
177
0
178
0
179
0
271
4
272
4
273
2
274
2
275
0
276
0
277
2
278
46
279
0
280
0
281
0
282
0
283
1
284
0
285
0
286
0
288
0
289
3
340
Standard
341

371
-2
372
-2
0
ENDTAB
0
TABLE
2
BLOCK_RECORD
5
1
330
0
100
AcDbSymbolTable
70
2
0
BLOCK_RECORD
5
1F
330
1
100
AcDbSymbolTableRecord
100
AcDbBlockTableRecord
2
*Model_Space
70
0
280
1
281
0
0
BLOCK_RECORD
5
1E
330
1
100
AcDbSymbolTableRecord
100
AcDbBlockTableRecord
2
*Paper_Space
70
0
280
1
281
0
0
BLOCK_RECORD
5
4A
330
1
100
AcDbSymbolTableRecord
100
AcDbBlockTableRecord
2
*D1
70
0
280
1
281
0
0
BLOCK_RECORD
5
4B
330
1
100
AcDbSymbolTableRecord
100
AcDbBlockTableRecord
2
*D2
70
0
280
1
281
0
0
BLOCK_RECORD
5
4C
330
1
100
AcDbSymbolTableRecord
100
AcDbBlockTableRecord
2
*D3
70
0
280
1
281
0
0
BLOCK_RECORD
5
4D
330
1
100
AcDbSymbolTableRecord
100
AcDbBlockTableRecord
2
*D4
70
0
280
1
281
0
0
BLOCK_RECORD
5
4E
330
1
100
AcDbSymbolTableRecord
100
AcDbBlockTableRecord
2
*D5
70
0
280
1
281
0
0
BLOCK_RECORD
5
4F
330
1
100
AcDbSymbolTableRecord
100
AcDbBlockTableRecord
2
*D6
70
0
280
1
281
0
0
BLOCK_RECORD
5
50
330
1
100
AcDbSymbolTableRecord
100
AcDbBlockTableRecord
2
*D7
70
0
280
1
281
0
0
BLOCK_RECORD
5
51
330
1
100
AcDbSymbolTableRecord
100
AcDbBlockTableRecord
2
*D8
70
0
280
1
281
0
0
BLOCK_RECORD
5
52
330
1
100
AcDbSymbolTableRecord
100
AcDbBlockTableRecord
2
*D9
70
0
280
1
281
0
0
BLOCK_RECORD
5
53
330
1
100
AcDbSymbolTableRecord
100
AcDbBlockTableRecord
2
*D10
70
0
280
1
281
0
0
BLOCK_RECORD
5
54
330
1
100
AcDbSymbolTableRecord
100
AcDbBlockTableRecord
2
*D11
70
0
280
1
281
0
0
BLOCK_RECORD
5
55
330
1
100
AcDbSymbolTableRecord
100
AcDbBlockTableRecord
2
*D12
70
0
280
1
281
0
0
ENDTAB
0
ENDSEC
0
SECTION
2
BLOCKS
0
BLOCK
5
20
330
1F
100
AcDbEntity
8
0
100
AcDbBlockBegin
2
*Model_Space
70
0
10
0
20
0
30
0
3
*Model_Space
1

0
ENDBLK
5
21
330
1F
100
AcDbEntity
8
0
100
AcDbBlockEnd
0
BLOCK
5
1C
330
0
100
AcDbEntity
8
0
100
AcDbBlockBegin
2
*Paper_Space
70
0
10
0
20
0
30
0
3
*Paper_Space
1

0
ENDBLK
5
1D
330
1F
100
AcDbEntity
8
0
100
AcDbBlockEnd
0
BLOCK
5
56
330
4A
100
AcDbEntity
8
0
100
AcDbBlockBegin
2
*D1
70
1
10
0
20
0
3
*D1
1

0
LINE
5
57
100
AcDbEntity
8
dimensions
6
ByLayer
62
256
370
-1
100
AcDbLine
10
82.45696
20
1720.10779
11
110.45698
21
1720.10779
0
LINE
5
58
100
AcDbEntity
8
dimensions
6
ByLayer
62
256
370
-1
100
AcDbLine
10
88.95696
20
1694.10779
11
88.95696
21
1726.60779
0
LINE
5
59
100
AcDbEntity
8
dimensions
6
ByLayer
62
256
370
-1
100
AcDbLine
10
85.70696
20
1723.35779
11
92.20696
21
1716.85779
0
LINE
5
5A
100
AcDbEntity
8
dimensions
6
ByLayer
62
256
370
-1
100
AcDbLine
10
103.95698
20
1694.10779
11
103.95698
21
1726.60779
0
LINE
5
5B
100
AcDbEntity
8
dimensions
6
ByLayer
62
256
370
-1
100
AcDbLine
10
100.70698
20
1723.35779
11
107.20698
21
1716.85779
0
TEXT
5
5C
100
AcDbEntity
8
text
6
ByLayer
62
256
370
-1
100
AcDbText
10
84.75697
20
1729.85779
30
0
40
13
1
15
50
0
41
0.9
7
standard
72
1
11
96.45697
21
1729.85779
31
0
100
AcDbText
0
ENDBLK
5
5D
330
46
100
AcDbEntity
8
0
100
AcDbBlockEnd
0
BLOCK
5
5E
330
4B
100
AcDbEntity
8
0
100
AcDbBlockBegin
2
*D2
70
1
10
0
20
0
3
*D2
1

0
LINE
5
5F
100
AcDbEntity
8
dimensions
6
ByLayer
62
256
370
-1
100
AcDbLine
10
97.45698
20
1720.10779
11
810.45698
21
1720.10779
0
LINE
5
60
100
AcDbEntity
8
dimensions
6
ByLayer
62
256
370
-1
100
AcDbLine
10
103.95698
20
1694.10779
11
103.95698
21
1726.60779
0
LINE
5
61
100
AcDbEntity
8
dimensions
6
ByLayer
62
256
370
-1
100
AcDbLine
10
100.70698
20
1723.35779
11
107.20698
21
1716.85779
0
LINE
5
62
100
AcDbEntity
8
dimensions
6
ByLayer
62
256
370
-1
100
AcDbLine
10
803.95698
20
1694.10779
11
803.95698
21
1726.60779
0
LINE
5
63
100
AcDbEntity
8
dimensions
6
ByLayer
62
256
370
-1
100
AcDbLine
10
800.70698
20
1723.35779
11
807.20698
21
1716.85779
0
TEXT
5
64
100
AcDbEntity
8
text
6
ByLayer
62
256
370
-1
100
AcDbText
10
436.40698
20
1729.85779
30
0
40
13
1
700
50
0
41
0.9
7
standard
72
1
11
453.95698
21
1729.85779
31
0
100
AcDbText
0
ENDBLK
5
65
330
46
100
AcDbEntity
8
0
100
AcDbBlockEnd
0
BLOCK
5
66
330
4C
100
AcDbEntity
8
0
100
AcDbBlockBegin
2
*D3
70
1
10
0
20
0
3
*D3
1

0
LINE
5
67
100
AcDbEntity
8
dimensions
6
ByLayer
62
256
370
-1
100
AcDbLine
10
797.45698
20
1720.10779
11
825.45696
21
1720.10779
0
LINE
5
68
100
AcDbEntity
8
dimensions
6
ByLayer
62
256
370
-1
100
AcDbLine
10
803.95698
20
1694.10779
11
803.95698
21
1726.60779
0
LINE
5
69
100
AcDbEntity
8
dimensions
6
ByLayer
62
256
370
-1
100
AcDbLine
10
800.70698
20
1723.35779
11
807.20698
21
1716.85779
0
LINE
5
6A
100
AcDbEntity
8
dimensions
6
ByLayer
62
256
370
-1
100
AcDbLine
10
818.95696
20
1694.10779
11
818.95696
21
1726.60779
0
LINE
5
6B
100
AcDbEntity
8
dimensions
6
ByLayer
62
256
370
-1
100
AcDbLine
10
815.70696
20
1723.35779
11
822.20696
21
1716.85779
0
TEXT
5
6C
100
AcDbEntity
8
text
6
ByLayer
62
256
370
-1
100
AcDbText
10
799.75697
20
1729.85779
30
0
40
13
1
15
50
0
41
0.9
7
standard
72
1
11
811.45697
21
1729.85779
31
0
100
AcDbText
0
ENDBLK
5
6D
330
46
100
AcDbEntity
8
0
100
AcDbBlockEnd
0
BLOCK
5
6E
330
4D
100
AcDbEntity
8
0
100
AcDbBlockBegin
2
*D4
70
1
10
0
20
0
3
*D4
1

0
LINE
5
6F
100
AcDbEntity
8
dimensions
6
ByLayer
62
256
370
-1
100
AcDbLine
10
82.45696
20
214.70779
11
110.45698
21
214.70779
0
LINE
5
70
100
AcDbEntity
8
dimensions
6
ByLayer
62
256
370
-1
100
AcDbLine
10
88.95696
20
240.70779
11
88.95696
21
208.20779
0
LINE
5
71
100
AcDbEntity
8
dimensions
6
ByLayer
62
256
370
-1
100
AcDbLine
10
85.70696
20
217.95779
11
92.20696
21
211.45779
0
LINE
5
72
100
AcDbEntity
8
dimensions
6
ByLayer
62
256
370
-1
100
AcDbLine
10
103.95698
20
240.70779
11
103.95698
21
208.20779
0
LINE
5
73
100
AcDbEntity
8
dimensions
6
ByLayer
62
256
370
-1
100
AcDbLine
10
100.70698
20
217.95779
11
107.20698
21
211.45779
0
TEXT
5
74
100
AcDbEntity
8
text
6
ByLayer
62
256
370
-1
100
AcDbText
10
84.75697
20
224.45779
30
0
40
13
1
15
50
0
41
0.9
7
standard
72
1
11
96.45697
21
224.45779
31
0
100
AcDbText
0
ENDBLK
5
75
330
46
100
AcDbEntity
8
0
100
AcDbBlockEnd
0
BLOCK
5
76
330
4E
100
AcDbEntity
8
0
100
AcDbBlockBegin
2
*D5
70
1
10
0
20
0
3
*D5
1

0
LINE
5
77
100
AcDbEntity
8
dimensions
6
ByLayer
62
256
370
-1
100
AcDbLine
10
97.45698
20
214.70779
11
810.45698
21
214.70779
0
LINE
5
78
100
AcDbEntity
8
dimensions
6
ByLayer
62
256
370
-1
100
AcDbLine
10
103.95698
20
240.70779
11
103.95698
21
208.20779
0
LINE
5
79
100
AcDbEntity
8
dimensions
6
ByLayer
62
256
370
-1
100
AcDbLine
10
100.70698
20
217.95779
11
107.20698
21
211.45779
0
LINE
5
7A
100
AcDbEntity
8
dimensions
6
ByLayer
62
256
370
-1
100
AcDbLine
10
803.95698
20
240.70779
11
803.95698
21
208.20779
0
LINE
5
7B
100
AcDbEntity
8
dimensions
6
ByLayer
62
256
370
-1
100
AcDbLine
10
800.70698
20
217.95779
11
807.20698
21
211.45779
0
TEXT
5
7C
100
AcDbEntity
8
text
6
ByLayer
62
256
370
-1
100
AcDbText
10
436.40698
20
224.45779
30
0
40
13
1
700
50
0
41
0.9
7
standard
72
1
11
453.95698
21
224.45779
31
0
100
AcDbText
0
ENDBLK
5
7D
330
46
100
AcDbEntity
8
0
100
AcDbBlockEnd
0
BLOCK
5
7E
330
4F
100
AcDbEntity
8
0
100
AcDbBlockBegin
2
*D6
70
1
10
0
20
0
3
*D6
1

0
LINE
5
7F
100
AcDbEntity
8
dimensions
6
ByLayer
62
256
370
-1
100
AcDbLine
10
797.45698
20
214.70779
11
825.45696
21
214.70779
0
LINE
5
80
100
AcDbEntity
8
dimensions
6
ByLayer
62
256
370
-1
100
AcDbLine
10
803.95698
20
240.70779
11
803.95698
21
208.20779
0
LINE
5
81
100
AcDbEntity
8
dimensions
6
ByLayer
62
256
370
-1
100
AcDbLine
10
800.70698
20
217.95779
11
807.20698
21
211.45779
0
LINE
5
82
100
AcDbEntity
8
dimensions
6
ByLayer
62
256
370
-1
100
AcDbLine
10
818.95696
20
240.70779
11
818.95696
21
208.20779
0
LINE
5
83
100
AcDbEntity
8
dimensions
6
ByLayer
62
256
370
-1
100
AcDbLine
10
815.70696
20
217.95779
11
822.20696
21
211.45779
0
TEXT
5
84
100
AcDbEntity
8
text
6
ByLayer
62
256
370
-1
100
AcDbText
10
799.75697
20
224.45779
30
0
40
13
1
15
50
0
41
0.9
7
standard
72
1
11
811.45697
21
224.45779
31
0
100
AcDbText
0
ENDBLK
5
85
330
46
100
AcDbEntity
8
0
100
AcDbBlockEnd
0
BLOCK
5
86
330
50
100
AcDbEntity
8
0
100
AcDbBlockBegin
2
*D7
70
1
10
0
20
0
3
*D7
1

0
LINE
5
87
100
AcDbEntity
8
dimensions
6
ByLayer
62
256
370
-1
100
AcDbLine
10
51.25696
20
1688.90779
11
51.25696
21
1660.90777
0
LINE
5
88
100
AcDbEntity
8
dimensions
6
ByLayer
62
256
370
-1
100
AcDbLine
10
77.25696
20
1682.40779
11
44.75696
21
1682.40779
0
LINE
5
89
100
AcDbEntity
8
dimensions
6
ByLayer
62
256
370
-1
100
AcDbLine
10
54.50696
20
1685.65779
11
48.00696
21
1679.15779
0
LINE
5
8A
100
AcDbEntity
8
dimensions
6
ByLayer
62
256
370
-1
100
AcDbLine
10
77.25696
20
1667.40777
11
44.75696
21
1667.40777
0
LINE
5
8B
100
AcDbEntity
8
dimensions
6
ByLayer
62
256
370
-1
100
AcDbLine
10
54.50696
20
1670.65777
11
48.00696
21
1664.15777
0
TEXT
5
8C
100
AcDbEntity
8
text
6
ByLayer
62
256
370
-1
100
AcDbText
10
23.30696
20
1668.40778
30
0
40
13
1
15
50
-270
41
0.9
7
standard
72
1
11
35.00696
21
1668.40778
31
0
100
AcDbText
0
ENDBLK
5
8D
330
46
100
AcDbEntity
8
0
100
AcDbBlockEnd
0
BLOCK
5
8E
330
51
100
AcDbEntity
8
0
100
AcDbBlockBegin
2
*D8
70
1
10
0
20
0
3
*D8
1

0
LINE
5
8F
100
AcDbEntity
8
dimensions
6
ByLayer
62
256
370
-1
100
AcDbLine
10
51.25696
20
1673.90777
11
51.25696
21
260.90777
0
LINE
5
90
100
AcDbEntity
8
dimensions
6
ByLayer
62
256
370
-1
100
AcDbLine
10
77.25696
20
1667.40777
11
44.75696
21
1667.40777
0
LINE
5
91
100
AcDbEntity
8
dimensions
6
ByLayer
62
256
370
-1
100
AcDbLine
10
54.50696
20
1670.65777
11
48.00696
21
1664.15777
0
LINE
5
92
100
AcDbEntity
8
dimensions
6
ByLayer
62
256
370
-1
100
AcDbLine
10
77.25696
20
267.40777
11
44.75696
21
267.40777
0
LINE
5
93
100
AcDbEntity
8
dimensions
6
ByLayer
62
256
370
-1
100
AcDbLine
10
54.50696
20
270.65777
11
48.00696
21
264.15777
0
TEXT
5
94
100
AcDbEntity
8
text
6
ByLayer
62
256
370
-1
100
AcDbText
10
11.60696
20
960.90777
30
0
40
13
1
1400
50
-270
41
0.9
7
standard
72
1
11
35.00696
21
960.90777
31
0
100
AcDbText
0
ENDBLK
5
95
330
46
100
AcDbEntity
8
0
100
AcDbBlockEnd
0
BLOCK
5
96
330
52
100
AcDbEntity
8
0
100
AcDbBlockBegin
2
*D9
70
1
10
0
20
0
3
*D9
1

0
LINE
5
97
100
AcDbEntity
8
dimensions
6
ByLayer
62
256
370
-1
100
AcDbLine
10
51.25696
20
273.90777
11
51.25696
21
245.90779
0
LINE
5
98
100
AcDbEntity
8
dimensions
6
ByLayer
62
256
370
-1
100
AcDbLine
10
77.25696
20
267.40777
11
44.75696
21
267.40777
0
LINE
5
99
100
AcDbEntity
8
dimensions
6
ByLayer
62
256
370
-1
100
AcDbLine
10
54.50696
20
270.65777
11
48.00696
21
264.15777
0
LINE
5
9A
100
AcDbEntity
8
dimensions
6
ByLayer
62
256
370
-1
100
AcDbLine
10
77.25696
20
252.40779
11
44.75696
21
252.40779
0
LINE
5
9B
100
AcDbEntity
8
dimensions
6
ByLayer
62
256
370
-1
100
AcDbLine
10
54.50696
20
255.65779
11
48.00696
21
249.15779
0
TEXT
5
9C
100
AcDbEntity
8
text
6
ByLayer
62
256
370
-1
100
AcDbText
10
23.30696
20
253.40778
30
0
40
13
1
15
50
-270
41
0.9
7
standard
72
1
11
35.00696
21
253.40778
31
0
100
AcDbText
0
ENDBLK
5
9D
330
46
100
AcDbEntity
8
0
100
AcDbBlockEnd
0
BLOCK
5
9E
330
53
100
AcDbEntity
8
0
100
AcDbBlockBegin
2
*D10
70
1
10
0
20
0
3
*D10
1

0
LINE
5
9F
100
AcDbEntity
8
dimensions
6
ByLayer
62
256
370
-1
100
AcDbLine
10
856.65696
20
1688.90779
11
856.65696
21
1660.90777
0
LINE
5
A0
100
AcDbEntity
8
dimensions
6
ByLayer
62
256
370
-1
100
AcDbLine
10
830.65696
20
1682.40779
11
863.15696
21
1682.40779
0
LINE
5
A1
100
AcDbEntity
8
dimensions
6
ByLayer
62
256
370
-1
100
AcDbLine
10
859.90696
20
1685.65779
11
853.40696
21
1679.15779
0
LINE
5
A2
100
AcDbEntity
8
dimensions
6
ByLayer
62
256
370
-1
100
AcDbLine
10
830.65696
20
1667.40777
11
863.15696
21
1667.40777
0
LINE
5
A3
100
AcDbEntity
8
dimensions
6
ByLayer
62
256
370
-1
100
AcDbLine
10
859.90696
20
1670.65777
11
853.40696
21
1664.15777
0
TEXT
5
A4
100
AcDbEntity
8
text
6
ByLayer
62
256
370
-1
100
AcDbText
10
828.70696
20
1668.40778
30
0
40
13
1
15
50
-270
41
0.9
7
standard
72
1
11
840.40696
21
1668.40778
31
0
100
AcDbText
0
ENDBLK
5
A5
330
46
100
AcDbEntity
8
0
100
AcDbBlockEnd
0
BLOCK
5
A6
330
54
100
AcDbEntity
8
0
100
AcDbBlockBegin
2
*D11
70
1
10
0
20
0
3
*D11
1

0
LINE
5
A7
100
AcDbEntity
8
dimensions
6
ByLayer
62
256
370
-1
100
AcDbLine
10
856.65696
20
1673.90777
11
856.65696
21
260.90777
0
LINE
5
A8
100
AcDbEntity
8
dimensions
6
ByLayer
62
256
370
-1
100
AcDbLine
10
830.65696
20
1667.40777
11
863.15696
21
1667.40777
0
LINE
5
A9
100
AcDbEntity
8
dimensions
6
ByLayer
62
256
370
-1
100
AcDbLine
10
859.90696
20
1670.65777
11
853.40696
21
1664.15777
0
LINE
5
AA
100
AcDbEntity
8
dimensions
6
ByLayer
62
256
370
-1
100
AcDbLine
10
830.65696
20
267.40777
11
863.15696
21
267.40777
0
LINE
5
AB
100
AcDbEntity
8
dimensions
6
ByLayer
62
256
370
-1
100
AcDbLine
10
859.90696
20
270.65777
11
853.40696
21
264.15777
0
TEXT
5
AC
100
AcDbEntity
8
text
6
ByLayer
62
256
370
-1
100
AcDbText
10
817.00696
20
960.90777
30
0
40
13
1
1400
50
-270
41
0.9
7
standard
72
1
11
840.40696
21
960.90777
31
0
100
AcDbText
0
ENDBLK
5
AD
330
46
100
AcDbEntity
8
0
100
AcDbBlockEnd
0
BLOCK
5
AE
330
55
100
AcDbEntity
8
0
100
AcDbBlockBegin
2
*D12
70
1
10
0
20
0
3
*D12
1

0
LINE
5
AF
100
AcDbEntity
8
dimensions
6
ByLayer
62
256
370
-1
100
AcDbLine
10
856.65696
20
273.90777
11
856.65696
21
245.90779
0
LINE
5
B0
100
AcDbEntity
8
dimensions
6
ByLayer
62
256
370
-1
100
AcDbLine
10
830.65696
20
267.40777
11
863.15696
21
267.40777
0
LINE
5
B1
100
AcDbEntity
8
dimensions
6
ByLayer
62
256
370
-1
100
AcDbLine
10
859.90696
20
270.65777
11
853.40696
21
264.15777
0
LINE
5
B2
100
AcDbEntity
8
dimensions
6
ByLayer
62
256
370
-1
100
AcDbLine
10
830.65696
20
252.40779
11
863.15696
21
252.40779
0
LINE
5
B3
100
AcDbEntity
8
dimensions
6
ByLayer
62
256
370
-1
100
AcDbLine
10
859.90696
20
255.65779
11
853.40696
21
249.15779
0
TEXT
5
B4
100
AcDbEntity
8
text
6
ByLayer
62
256
370
-1
100
AcDbText
10
828.70696
20
253.40778
30
0
40
13
1
15
50
-270
41
0.9
7
standard
72
1
11
840.40696
21
253.40778
31
0
100
AcDbText
0
ENDBLK
5
B5
330
46
100
AcDbEntity
8
0
100
AcDbBlockEnd
0
ENDSEC
0
SECTION
2
ENTITIES
0
DIMENSION
5
B6
100
AcDbEntity
8
dimensions
6
ByLayer
62
256
370
-1
100
AcDbDimension
2
*D1
10
103.95698
20
1720.10779
30
0
11
96.45697
21
1720.10779
31
0
70
33
71
5
3
Standard
53
0
210
0
220
0
230
1
100
AcDbAlignedDimension
13
88.95696
23
1694.10779
33
0
14
103.95698
24
1694.10779
34
0
0
DIMENSION
5
B7
100
AcDbEntity
8
dimensions
6
ByLayer
62
256
370
-1
100
AcDbDimension
2
*D2
10
803.95698
20
1720.10779
30
0
11
453.95698
21
1720.10779
31
0
70
33
71
5
3
Standard
53
0
210
0
220
0
230
1
100
AcDbAlignedDimension
13
103.95698
23
1694.10779
33
0
14
803.95698
24
1694.10779
34
0
0
DIMENSION
5
B8
100
AcDbEntity
8
dimensions
6
ByLayer
62
256
370
-1
100
AcDbDimension
2
*D3
10
818.95696
20
1720.10779
30
0
11
811.45697
21
1720.10779
31
0
70
33
71
5
3
Standard
53
0
210
0
220
0
230
1
100
AcDbAlignedDimension
13
803.95698
23
1694.10779
33
0
14
818.95696
24
1694.10779
34
0
0
DIMENSION
5
B9
100
AcDbEntity
8
dimensions
6
ByLayer
62
256
370
-1
100
AcDbDimension
2
*D4
10
103.95698
20
214.70779
30
0
11
96.45697
21
214.70779
31
0
70
33
71
5
3
Standard
53
0
210
0
220
0
230
1
100
AcDbAlignedDimension
13
88.95696
23
240.70779
33
0
14
103.95698
24
240.70779
34
0
0
DIMENSION
5
BA
100
AcDbEntity
8
dimensions
6
ByLayer
62
256
370
-1
100
AcDbDimension
2
*D5
10
803.95698
20
214.70779
30
0
11
453.95698
21
214.70779
31
0
70
33
71
5
3
Standard
53
0
210
0
220
0
230
1
100
AcDbAlignedDimension
13
103.95698
23
240.70779
33
0
14
803.95698
24
240.70779
34
0
0
DIMENSION
5
BB
100
AcDbEntity
8
dimensions
6
ByLayer
62
256
370
-1
100
AcDbDimension
2
*D6
10
818.95696
20
214.70779
30
0
11
811.45697
21
214.70779
31
0
70
33
71
5
3
Standard
53
0
210
0
220
0
230
1
100
AcDbAlignedDimension
13
803.95698
23
240.70779
33
0
14
818.95696
24
240.70779
34
0
0
DIMENSION
5
BC
100
AcDbEntity
8
dimensions
6
ByLayer
62
256
370
-1
100
AcDbDimension
2
*D7
10
51.25696
20
1667.40777
30
0
11
51.25696
21
1674.90778
31
0
70
33
71
5
3
Standard
53
0
210
0
220
0
230
1
100
AcDbAlignedDimension
13
77.25696
23
1682.40779
33
0
14
77.25696
24
1667.40777
34
0
0
DIMENSION
5
BD
100
AcDbEntity
8
dimensions
6
ByLayer
62
256
370
-1
100
AcDbDimension
2
*D8
10
51.25696
20
267.40777
30
0
11
51.25696
21
967.40777
31
0
70
33
71
5
3
Standard
53
0
210
0
220
0
230
1
100
AcDbAlignedDimension
13
77.25696
23
1667.40777
33
0
14
77.25696
24
267.40777
34
0
0
DIMENSION
5
BE
100
AcDbEntity
8
dimensions
6
ByLayer
62
256
370
-1
100
AcDbDimension
2
*D9
10
51.25696
20
252.40779
30
0
11
51.25696
21
259.90778
31
0
70
33
71
5
3
Standard
53
0
210
0
220
0
230
1
100
AcDbAlignedDimension
13
77.25696
23
267.40777
33
0
14
77.25696
24
252.40779
34
0
0
DIMENSION
5
BF
100
AcDbEntity
8
dimensions
6
ByLayer
62
256
370
-1
100
AcDbDimension
2
*D10
10
856.65696
20
1667.40777
30
0
11
856.65696
21
1674.90778
31
0
70
33
71
5
3
Standard
53
0
210
0
220
0
230
1
100
AcDbAlignedDimension
13
830.65696
23
1682.40779
33
0
14
830.65696
24
1667.40777
34
0
0
DIMENSION
5
C0
100
AcDbEntity
8
dimensions
6
ByLayer
62
256
370
-1
100
AcDbDimension
2
*D11
10
856.65696
20
267.40777
30
0
11
856.65696
21
967.40777
31
0
70
33
71
5
3
Standard
53
0
210
0
220
0
230
1
100
AcDbAlignedDimension
13
830.65696
23
1667.40777
33
0
14
830.65696
24
267.40777
34
0
0
DIMENSION
5
C1
100
AcDbEntity
8
dimensions
6
ByLayer
62
256
370
-1
100
AcDbDimension
2
*D12
10
856.65696
20
252.40779
30
0
11
856.65696
21
259.90778
31
0
70
33
71
5
3
Standard
53
0
210
0
220
0
230
1
100
AcDbAlignedDimension
13
830.65696
23
267.40777
33
0
14
830.65696
24
252.40779
34
0
0
LWPOLYLINE
5
C2
100
AcDbEntity
8
walls
6
ByLayer
62
256
370
-1
100
AcDbPolyline
90
8
70
1
10
818.95696
20
252.40779
10
789.23936
20
252.40779
10
789.23936
20
267.40779
10
803.95696
20
267.40779
10
803.95696
20
1667.40779
10
744.48626
20
1667.40779
10
744.48626
20
1682.40779
10
818.95696
20
1682.40779
0
LWPOLYLINE
5
C3
100
AcDbEntity
8
walls
6
ByLayer
62
256
370
-1
100
AcDbPolyline
90
13
70
1
10
158.87386
20
1667.40779
10
103.95696
20
1667.40779
10
103.95696
20
738.56809
10
103.99366
20
752.29799
10
119.20696
20
752.25729
10
119.16686
20
737.25539
10
103.95696
20
737.29609
10
103.95696
20
267.40779
10
699.23936
20
267.40779
10
699.23936
20
252.40779
10
88.95696
20
252.40779
10
88.95696
20
1682.40779
10
158.87386
20
1682.40779
0
LWPOLYLINE
5
C4
100
AcDbEntity
8
walls
6
ByLayer
62
256
370
-1
100
AcDbPolyline
90
4
70
1
10
803.89326
20
751.67209
10
803.85306
20
736.67009
10
789.06456
20
736.70969
10
789.10456
20
751.71169
0
LWPOLYLINE
5
C5
100
AcDbEntity
8
walls
6
ByLayer
62
256
370
-1
100
AcDbPolyline
90
4
70
1
10
699.10486
20
751.95259
10
699.06486
20
736.95059
10
683.85156
20
736.99129
10
683.89166
20
751.99329
0
LWPOLYLINE
5
C6
100
AcDbEntity
8
walls
6
ByLayer
62
256
370
-1
100
AcDbPolyline
90
4
70
1
10
223.99526
20
751.97679
10
223.95516
20
736.97489
10
209.16656
20
737.01449
10
209.20656
20
752.01639
0
LWPOLYLINE
5
C7
100
AcDbEntity
8
walls
6
ByLayer
62
256
370
-1
100
AcDbPolyline
90
4
70
1
10
224.18726
20
1216.60859
10
224.14706
20
1201.60669
10
209.35846
20
1201.64629
10
209.39856
20
1216.64819
0
LWPOLYLINE
5
C8
100
AcDbEntity
8
walls
6
ByLayer
62
256
370
-1
100
AcDbPolyline
90
4
70
1
10
119.39886
20
1216.88909
10
119.35886
20
1201.88719
10
104.14546
20
1201.92789
10
104.18566
20
1216.92979
0
LWPOLYLINE
5
C9
100
AcDbEntity
8
symbols
6
ByLayer
62
256
370
-1
100
AcDbPolyline
90
1
70
0
10
453.85581
20
751.95809
0
LWPOLYLINE
5
CA
100
AcDbEntity
8
symbols
6
ByLayer
62
256
370
-1
100
AcDbPolyline
90
4
70
1
10
223.93964
20
736.95809
10
683.77198
20
736.95809
10
683.77198
20
751.95809
10
223.93964
20
751.95809
0
LWPOLYLINE
5
CB
100
AcDbEntity
8
symbols
6
ByLayer
62
256
370
-1
100
AcDbPolyline
90
1
70
0
10
404.21633
20
1259.61438
0
LWPOLYLINE
5
CC
100
AcDbEntity
8
symbols
6
ByLayer
62
256
370
-1
100
AcDbPolyline
90
4
70
1
10
419.21633
20
1041.931415
10
419.21633
20
1477.297345
10
404.21633
20
1477.297345
10
404.21633
20
1041.931415
0
LWPOLYLINE
5
CD
100
AcDbEntity
8
symbols
6
ByLayer
62
256
370
-1
100
AcDbPolyline
90
4
70
1
10
105.59048
20
266.06
10
803.09768
20
266.06
10
803.09768
20
536.06
10
105.59048
20
536.06
0
LWPOLYLINE
5
CE
100
AcDbEntity
8
symbols
6
ByLayer
62
256
370
-1
100
AcDbPolyline
90
1
70
0
10
404.93064
20
332.13799
0
LWPOLYLINE
5
CF
100
AcDbEntity
8
symbols
6
ByLayer
62
256
370
-1
100
AcDbPolyline
90
4
70
1
10
154.93064
20
272.13799
10
654.93064
20
272.13799
10
654.93064
20
332.13799
10
154.93064
20
332.13799
0
LWPOLYLINE
5
D0
100
AcDbEntity
8
symbols
6
ByLayer
62
256
370
-1
100
AcDbPolyline
90
24
70
1
10
280.5545036
20
1080.63406384
10
324.48152729
20
1061.28421655
10
347.05634912
20
1112.53241086
10
347.26999205
20
1113.14728154
10
347.37940075
20
1113.77164461
10
347.38879199
20
1114.39464346
10
347.30238254
20
1115.0054215
10
347.1243892
20
1115.59312214
10
346.85902872
20
1116.14688877
10
346.5105179
20
1116.65586482
10
346.0830735
20
1117.10919367
10
345.5809123
20
1117.49601874
10
345.00825109
20
1117.80548344
10
308.40239802
20
1133.93035617
10
307.78752733
20
1134.1439991
10
307.16316426
20
1134.2534078
10
306.54016541
20
1134.26279904
10
305.92938737
20
1134.17638959
10
305.34168673
20
1133.99839625
10
304.7879201
20
1133.73303577
10
304.27894405
20
1133.38452495
10
303.8256152
20
1132.95708055
10
303.43879013
20
1132.45491935
10
303.12932543
20
1131.88225814
0
LWPOLYLINE
5
D1
100
AcDbEntity
8
symbols
6
ByLayer
62
256
370
-1
100
AcDbPolyline
90
4
70
0
10
283.21510761
20
1086.67402959
10
277.72422964
20
1089.0927605
10
294.41347293
20
1126.97981844
10
299.90435089
20
1124.56108752
0
LWPOLYLINE
5
D2
100
AcDbEntity
8
symbols
6
ByLayer
62
256
370
-1
100
AcDbPolyline
90
4
70
0
10
327.14213129
20
1067.32418231
10
332.63300925
20
1064.9054514
10
349.32225254
20
1102.79250933
10
343.83137458
20
1105.21124024
0
LWPOLYLINE
5
D3
100
AcDbEntity
8
symbols
6
ByLayer
62
256
370
-1
100
AcDbPolyline
90
2
70
0
10
285.39196542
20
1091.61581976
10
329.31898911
20
1072.26597248
0
LWPOLYLINE
5
D4
100
AcDbEntity
8
symbols
6
ByLayer
62
256
370
-1
100
AcDbPolyline
90
41
70
0
10
219.28179
20
1148.2269
10
221.71486791
20
1148.42322468
10
224.02295016
20
1148.99160996
10
226.17515362
20
1149.90117273
10
228.14059518
20
1151.12102988
10
229.88839172
20
1152.62029828
10
231.38766012
20
1154.36809482
10
232.60751727
20
1156.33353638
10
233.51708004
20
1158.48573984
10
234.08546532
20
1160.79382209
10
234.28179
20
1163.2269
10
234.08546532
20
1165.65997791
10
233.51708004
20
1167.96806016
10
232.60751727
20
1170.12026362
10
231.38766012
20
1172.08570518
10
229.88839172
20
1173.83350172
10
228.14059518
20
1175.33277012
10
226.17515362
20
1176.55262727
10
224.02295016
20
1177.46219004
10
221.71486791
20
1178.03057532
10
219.28179
20
1178.2269
10
216.84871209
20
1178.03057532
10
214.54062984
20
1177.46219004
10
212.38842638
20
1176.55262727
10
210.42298482
20
1175.33277012
10
208.67518828
20
1173.83350172
10
207.17591988
20
1172.08570518
10
205.95606273
20
1170.12026362
10
205.04649996
20
1167.96806016
10
204.47811468
20
1165.65997791
10
204.28179
20
1163.2269
10
204.47811468
20
1160.79382209
10
205.04649996
20
1158.48573984
10
205.95606273
20
1156.33353638
10
207.17591988
20
1154.36809482
10
208.67518828
20
1152.62029828
10
210.42298482
20
1151.12102988
10
212.38842638
20
1149.90117273
10
214.54062984
20
1148.99160996
10
216.84871209
20
1148.42322468
10
219.28179
20
1148.2269
0
LWPOLYLINE
5
D5
100
AcDbEntity
8
symbols
6
ByLayer
62
256
370
-1
100
AcDbPolyline
90
44
70
1
10
498.76581333
20
753.57980173
10
499.41486896
20
753.62915814
10
500.03105095
20
753.77788358
10
500.60608585
20
754.01778068
10
501.13170024
20
754.34065206
10
501.59962066
20
754.73830033
10
502.00157367
20
755.20252813
10
502.32928584
20
755.72513806
10
502.57448371
20
756.29793276
10
502.72889386
20
756.91271484
10
502.78424282
20
757.56128693
10
502.81656908
20
764.56121229
10
502.76721267
20
765.21026792
10
502.61848722
20
765.8264499
10
502.37859012
20
766.40148481
10
502.05571875
20
766.9270992
10
501.65807047
20
767.39501962
10
501.19384268
20
767.79697263
10
500.67123275
20
768.1246848
10
500.09843805
20
768.36988267
10
499.48365596
20
768.52429281
10
498.83508388
20
768.57964178
10
427.83584096
20
768.90752237
10
427.18678533
20
768.85816595
10
426.57060335
20
768.70944051
10
425.99556844
20
768.46954341
10
425.46995405
20
768.14667204
10
425.00203363
20
767.74902376
10
424.60008062
20
767.28479597
10
424.27236845
20
766.76218603
10
424.02717058
20
766.18939134
10
423.87276044
20
765.57460925
10
423.81741147
20
764.92603716
10
423.78508521
20
757.92611181
10
423.83444163
20
757.27705618
10
423.98316707
20
756.66087419
10
424.22306417
20
756.08583928
10
424.54593554
20
755.5602249
10
424.94358382
20
755.09230448
10
425.40781161
20
754.69035146
10
425.93042155
20
754.3626393
10
426.50321624
20
754.11744142
10
427.11799833
20
753.96303128
10
427.76657042
20
753.90768231
0
LWPOLYLINE
5
D6
100
AcDbEntity
8
symbols
6
ByLayer
62
256
370
-1
100
AcDbPolyline
90
44
70
1
10
499.5739697
20
928.57793567
10
500.22302533
20
928.62729208
10
500.83920732
20
928.77601753
10
501.41424223
20
929.01591462
10
501.93985661
20
929.338786
10
502.40777703
20
929.73643427
10
502.80973005
20
930.20066207
10
503.13744221
20
930.723272
10
503.38264009
20
931.2960667
10
503.53705023
20
931.91084878
10
503.59239919
20
932.55942087
10
503.62472545
20
939.55934623
10
503.57536904
20
940.20840186
10
503.42664359
20
940.82458385
10
503.1867465
20
941.39961875
10
502.86387512
20
941.92523314
10
502.46622685
20
942.39315356
10
502.00199905
20
942.79510657
10
501.47938912
20
943.12281874
10
500.90659442
20
943.36801661
10
500.29181234
20
943.52242676
10
499.64324025
20
943.57777572
10
428.64399733
20
943.90565631
10
427.99494171
20
943.8562999
10
427.37875972
20
943.70757445
10
426.80372481
20
943.46767735
10
426.27811042
20
943.14480598
10
425.81019
20
942.7471577
10
425.40823699
20
942.28292991
10
425.08052482
20
941.76031998
10
424.83532695
20
941.18752528
10
424.68091681
20
940.5727432
10
424.62556784
20
939.92417111
10
424.59324159
20
932.92424575
10
424.642598
20
932.27519012
10
424.79132344
20
931.65900813
10
425.03122054
20
931.08397322
10
425.35409192
20
930.55835884
10
425.75174019
20
930.09043842
10
426.21596798
20
929.6884854
10
426.73857792
20
929.36077324
10
427.31137262
20
929.11557536
10
427.9261547
20
928.96116522
10
428.57472679
20
928.90581626
0
LWPOLYLINE
5
D7
100
AcDbEntity
8
symbols
6
ByLayer
62
256
370
-1
100
AcDbPolyline
90
24
70
1
10
501.83505189
20
768.56578767
10
502.97089923
20
768.65216139
10
504.04921771
20
768.91243092
10
505.0555288
20
769.33225084
10
505.97535398
20
769.89727575
10
506.79421472
20
770.59316023
10
507.49763249
20
771.40555887
10
508.07112878
20
772.32012625
10
508.50022506
20
773.32251697
10
508.77044281
20
774.39838562
10
508.8673035
20
775.53338677
10
509.54153681
20
921.53182995
10
509.4551631
20
922.6676773
10
509.19489357
20
923.74599578
10
508.77507365
20
924.75230687
10
508.21004874
20
925.67213204
10
507.51416426
20
926.49099278
10
506.70176562
20
927.19441055
10
505.78719823
20
927.76790684
10
504.78480751
20
928.19700312
10
503.70893887
20
928.46722087
10
502.57393771
20
928.56408156
10
419.57482276
20
928.94737858
10
418.83593693
20
768.94908469
0
LINE
5
D8
100
AcDbEntity
8
symbols
6
ByLayer
62
256
370
-1
100
AcDbLine
10
443.83567035
20
768.83363378
11
444.57455618
21
928.83192767
0
LINE
5
D9
100
AcDbEntity
8
symbols
6
ByLayer
62
256
370
-1
100
AcDbLine
10
444.20511326
20
848.83278073
11
509.20442016
21
848.53260836
0
LWPOLYLINE
5
DA
100
AcDbEntity
8
symbols
6
ByLayer
62
256
370
-1
100
AcDbPolyline
90
4
70
1
10
584.691565
20
810.895535
10
584.691565
20
897.901285
10
537.097195
20
897.901285
10
537.097195
20
810.895535
0
LWPOLYLINE
5
DB
100
AcDbEntity
8
symbols
6
ByLayer
62
256
370
-1
100
AcDbPolyline
90
6
70
0
10
761.4731
20
1191.60736
10
768.9731
20
1183.44736
10
769.2731
20
1182.06736
10
767.2331
20
1182.36736
10
755.4731
20
1176.48736
10
754.7531
20
1174.26736
0
LWPOLYLINE
5
DC
100
AcDbEntity
8
symbols
6
ByLayer
62
256
370
-1
100
AcDbPolyline
90
3
70
0
10
769.2731
20
1182.06736
10
779.1731
20
1180.56736
10
779.5331
20
1174.02736
0
LWPOLYLINE
5
DD
100
AcDbEntity
8
symbols
6
ByLayer
62
256
370
-1
100
AcDbPolyline
90
3
70
0
10
779.5331
20
1174.02736
10
779.7131
20
1168.50736
10
774.1931
20
1160.16736
0
LWPOLYLINE
5
DE
100
AcDbEntity
8
symbols
6
ByLayer
62
256
370
-1
100
AcDbPolyline
90
6
70
1
10
760.8731
20
1165.86736
10
770.1131
20
1164.84736
10
777.6131
20
1155.42736
10
768.1931
20
1150.98736
10
758.5331
20
1151.34736
10
754.3931
20
1156.92736
0
LWPOLYLINE
5
DF
100
AcDbEntity
8
symbols
6
ByLayer
62
256
370
-1
100
AcDbPolyline
90
2
70
0
10
760.2131
20
1165.08736
10
758.5331
20
1167.78736
0
LWPOLYLINE
5
E0
100
AcDbEntity
8
symbols
6
ByLayer
62
256
370
-1
100
AcDbPolyline
90
3
70
0
10
747.8531
20
1160.46736
10
749.0531
20
1159.20736
10
754.6331
20
1157.34736
0
LWPOLYLINE
5
E1
100
AcDbEntity
8
symbols
6
ByLayer
62
256
370
-1
100
AcDbPolyline
90
6
70
0
10
779.5331
20
1174.02736
10
786.1931
20
1169.82736
10
782.0531
20
1158.54736
10
778.6931
20
1156.14736
10
777.1931
20
1159.80736
10
774.5531
20
1159.26736
0
LWPOLYLINE
5
E2
100
AcDbEntity
8
symbols
6
ByLayer
62
256
370
-1
100
AcDbPolyline
90
7
70
0
10
778.6931
20
1156.14736
10
782.0531
20
1147.86736
10
777.4331
20
1139.10736
10
768.0131
20
1135.62736
10
766.2731
20
1136.76736
10
769.7531
20
1142.58736
10
769.9931
20
1151.82736
0
LWPOLYLINE
5
E3
100
AcDbEntity
8
symbols
6
ByLayer
62
256
370
-1
100
AcDbPolyline
90
6
70
0
10
766.2731
20
1136.76736
10
763.0931
20
1131.84736
10
757.6331
20
1134.24736
10
752.1131
20
1137.00736
10
744.0131
20
1150.26736
10
748.7531
20
1159.38736
0
LWPOLYLINE
5
E4
100
AcDbEntity
8
symbols
6
ByLayer
62
256
370
-1
100
AcDbPolyline
90
5
70
0
10
757.6331
20
1134.24736
10
752.8931
20
1131.78736
10
745.0931
20
1139.10736
10
744.4331
20
1143.06736
10
748.0931
20
1143.54736
0
LWPOLYLINE
5
E5
100
AcDbEntity
8
symbols
6
ByLayer
62
256
370
-1
100
AcDbPolyline
90
7
70
0
10
744.4331
20
1143.06736
10
737.1731
20
1142.34736
10
727.7531
20
1148.04736
10
729.5531
20
1159.56736
10
730.6331
20
1160.40736
10
732.9731
20
1156.86736
10
744.0131
20
1150.26736
0
LWPOLYLINE
5
E6
100
AcDbEntity
8
symbols
6
ByLayer
62
256
370
-1
100
AcDbPolyline
90
11
70
0
10
730.6331
20
1160.40736
10
726.5531
20
1167.42736
10
731.6531
20
1171.56736
10
736.0931
20
1175.10736
10
745.4531
20
1175.70736
10
744.9731
20
1166.10736
10
747.3731
20
1160.04736
10
760.2731
20
1168.92736
10
755.6531
20
1174.02736
10
745.6331
20
1176.84736
10
745.4531
20
1175.70736
0
LWPOLYLINE
5
E7
100
AcDbEntity
8
symbols
6
ByLayer
62
256
370
-1
100
AcDbPolyline
90
6
70
0
10
731.6531
20
1171.56736
10
733.5131
20
1179.96736
10
743.6531
20
1182.84736
10
748.0331
20
1180.44736
10
750.7931
20
1186.08736
10
761.4731
20
1191.60736
0
LWPOLYLINE
5
E8
100
AcDbEntity
8
symbols
6
ByLayer
62
256
370
-1
100
AcDbPolyline
90
2
70
0
10
748.0331
20
1180.44736
10
746.3531
20
1176.66736
0
LWPOLYLINE
5
E9
100
AcDbEntity
8
symbols
6
ByLayer
62
256
370
-1
100
AcDbPolyline
90
2
70
0
10
403.837605
20
1409.21203
10
403.837605
20
1219.21203
0
LWPOLYLINE
5
EA
100
AcDbEntity
8
symbols
6
ByLayer
62
256
370
-1
100
AcDbPolyline
90
2
70
0
10
315.874275
20
1409.21203
10
315.874275
20
1219.21203
0
LWPOLYLINE
5
EB
100
AcDbEntity
8
symbols
6
ByLayer
62
256
370
-1
100
AcDbPolyline
90
2
70
0
10
408.837605
20
1409.21203
10
310.874275
20
1409.21203
0
LWPOLYLINE
5
EC
100
AcDbEntity
8
symbols
6
ByLayer
62
256
370
-1
100
AcDbPolyline
90
2
70
0
10
408.837605
20
1219.21203
10
310.874275
20
1219.21203
0
LWPOLYLINE
5
ED
100
AcDbEntity
8
symbols
6
ByLayer
62
256
370
-1
100
AcDbPolyline
90
4
70
1
10
408.837605
20
1414.21203
10
310.874275
20
1414.21203
10
310.874275
20
1214.21203
10
408.837605
20
1214.21203
0
LWPOLYLINE
5
EE
100
AcDbEntity
8
symbols
6
ByLayer
62
256
370
-1
100
AcDbPolyline
90
44
70
1
10
398.837605
20
1251.21203
10
398.79834006
20
1251.69864558
10
398.68466301
20
1252.16026203
10
398.50275045
20
1252.59070272
10
398.25877902
20
1252.98379104
10
397.95892534
20
1253.33335034
10
397.60936604
20
1253.63320402
10
397.21627772
20
1253.87717545
10
396.78583703
20
1254.05908801
10
396.32422058
20
1254.17276506
10
395.837605
20
1254.21203
10
323.874275
20
1254.21203
10
323.38765942
20
1254.17276506
10
322.92604297
20
1254.05908801
10
322.49560228
20
1253.87717545
10
322.10251396
20
1253.63320402
10
321.75295466
20
1253.33335034
10
321.45310098
20
1252.98379104
10
321.20912955
20
1252.59070272
10
321.02721699
20
1252.16026203
10
320.91353994
20
1251.69864558
10
320.874275
20
1251.21203
10
320.874275
20
1227.21203
10
320.91353994
20
1226.72541442
10
321.02721699
20
1226.26379797
10
321.20912955
20
1225.83335728
10
321.45310098
20
1225.44026896
10
321.75295466
20
1225.09070966
10
322.10251396
20
1224.79085598
10
322.49560228
20
1224.54688455
10
322.92604297
20
1224.36497199
10
323.38765942
20
1224.25129494
10
323.874275
20
1224.21203
10
395.837605
20
1224.21203
10
396.32422058
20
1224.25129494
10
396.78583703
20
1224.36497199
10
397.21627772
20
1224.54688455
10
397.60936604
20
1224.79085598
10
397.95892534
20
1225.09070966
10
398.25877902
20
1225.44026896
10
398.50275045
20
1225.83335728
10
398.68466301
20
1226.26379797
10
398.79834006
20
1226.72541442
10
398.837605
20
1227.21203
0
LWPOLYLINE
5
EF
100
AcDbEntity
8
symbols
6
ByLayer
62
256
370
-1
100
AcDbPolyline
90
5
70
0
10
158.8376
20
1464.21203
10
158.8376
20
1664.21203
10
108.8376
20
1664.21203
10
108.8376
20
1464.21203
10
158.8376
20
1464.21203
0
LWPOLYLINE
5
F0
100
AcDbEntity
8
symbols
6
ByLayer
62
256
370
-1
100
AcDbPolyline
90
41
70
0
10
668.03312
20
1622.10127
10
670.46619791
20
1622.29759468
10
672.77428016
20
1622.86597996
10
674.92648362
20
1623.77554273
10
676.89192518
20
1624.99539988
10
678.63972172
20
1626.49466828
10
680.13899012
20
1628.24246482
10
681.35884727
20
1630.20790638
10
682.26841004
20
1632.36010984
10
682.83679532
20
1634.66819209
10
683.03312
20
1637.10127
10
682.83679532
20
1639.53434791
10
682.26841004
20
1641.84243016
10
681.35884727
20
1643.99463362
10
680.13899012
20
1645.96007518
10
678.63972172
20
1647.70787172
10
676.89192518
20
1649.20714012
10
674.92648362
20
1650.42699727
10
672.77428016
20
1651.33656004
10
670.46619791
20
1651.90494532
10
668.03312
20
1652.10127
10
665.60004209
20
1651.90494532
10
663.29195984
20
1651.33656004
10
661.13975638
20
1650.42699727
10
659.17431482
20
1649.20714012
10
657.42651828
20
1647.70787172
10
655.92724988
20
1645.96007518
10
654.70739273
20
1643.99463362
10
653.79782996
20
1641.84243016
10
653.22944468
20
1639.53434791
10
653.03312
20
1637.10127
10
653.22944468
20
1634.66819209
10
653.79782996
20
1632.36010984
10
654.70739273
20
1630.20790638
10
655.92724988
20
1628.24246482
10
657.42651828
20
1626.49466828
10
659.17431482
20
1624.99539988
10
661.13975638
20
1623.77554273
10
663.29195984
20
1622.86597996
10
665.60004209
20
1622.29759468
10
668.03312
20
1622.10127
0
LWPOLYLINE
5
F1
100
AcDbEntity
8
symbols
6
ByLayer
62
256
370
-1
100
AcDbPolyline
90
24
70
1
10
765.80149206
20
1578.71904883
10
765.6015817
20
1578.46221587
10
765.36934628
20
1578.24653884
10
765.11048781
20
1578.07320034
10
764.83070832
20
1577.943383
10
764.53570985
20
1577.85826943
10
764.23119443
20
1577.81904224
10
763.92286407
20
1577.82688406
10
763.61642082
20
1577.88297749
10
763.31756669
20
1577.98850515
10
763.03200373
20
1578.14464966
10
716.21757883
20
1608.87589794
10
715.96074587
20
1609.0758083
10
715.74506884
20
1609.30804372
10
715.57173034
20
1609.56690219
10
715.441913
20
1609.84668168
10
715.35679943
20
1610.14168015
10
715.31757224
20
1610.44619557
10
715.32541406
20
1610.75452593
10
715.38150749
20
1611.06096918
10
715.48703515
20
1611.35982331
10
715.64317966
20
1611.64538627
10
747.47197253
20
1660.13175492
10
797.63028492
20
1627.20541747
0
LWPOLYLINE
5
F2
100
AcDbEntity
8
symbols
6
ByLayer
62
256
370
-1
100
AcDbPolyline
90
3
70
0
10
717.88952257
20
1607.77835336
10
715.69443341
20
1604.43446587
10
719.0383209
20
1602.23937671
0
LINE
5
F3
100
AcDbEntity
8
symbols
6
ByLayer
62
256
370
-1
100
AcDbLine
10
767.99658122
20
1582.06293632
11
717.83826882
21
1614.98927376
0
LWPOLYLINE
5
F4
100
AcDbEntity
8
symbols
6
ByLayer
62
256
370
-1
100
AcDbPolyline
90
5
70
0
10
752.29829
20
1318.66001
10
752.29829
20
1218.66001
10
802.29829
20
1218.66001
10
802.29829
20
1318.66001
10
752.29829
20
1318.66001
0
LWPOLYLINE
5
F5
100
AcDbEntity
8
symbols
6
ByLayer
62
256
370
-1
100
AcDbPolyline
90
1
70
0
10
419.07934
20
1216.46854
0
LWPOLYLINE
5
F6
100
AcDbEntity
8
symbols
6
ByLayer
62
256
370
-1
100
AcDbPolyline
90
4
70
1
10
224.424685
20
1201.46854
10
613.733995
20
1201.46854
10
613.733995
20
1216.46854
10
224.424685
20
1216.46854
0
LWPOLYLINE
5
F7
100
AcDbEntity
8
symbols
6
ByLayer
62
256
370
-1
100
AcDbPolyline
90
6
70
0
10
464.12484
20
1452.29502
10
471.62484
20
1444.13502
10
471.92484
20
1442.75502
10
469.88484
20
1443.05502
10
458.12484
20
1437.17502
10
457.40484
20
1434.95502
0
LWPOLYLINE
5
F8
100
AcDbEntity
8
symbols
6
ByLayer
62
256
370
-1
100
AcDbPolyline
90
3
70
0
10
471.92484
20
1442.75502
10
481.82484
20
1441.25502
10
482.18484
20
1434.71502
0
LWPOLYLINE
5
F9
100
AcDbEntity
8
symbols
6
ByLayer
62
256
370
-1
100
AcDbPolyline
90
3
70
0
10
482.18484
20
1434.71502
10
482.36484
20
1429.19502
10
476.84484
20
1420.85502
0
LWPOLYLINE
5
FA
100
AcDbEntity
8
symbols
6
ByLayer
62
256
370
-1
100
AcDbPolyline
90
6
70
1
10
463.52484
20
1426.55502
10
472.76484
20
1425.53502
10
480.26484
20
1416.11502
10
470.84484
20
1411.67502
10
461.18484
20
1412.03502
10
457.04484
20
1417.61502
0
LWPOLYLINE
5
FB
100
AcDbEntity
8
symbols
6
ByLayer
62
256
370
-1
100
AcDbPolyline
90
2
70
0
10
462.86484
20
1425.77502
10
461.18484
20
1428.47502
0
LWPOLYLINE
5
FC
100
AcDbEntity
8
symbols
6
ByLayer
62
256
370
-1
100
AcDbPolyline
90
3
70
0
10
450.50484
20
1421.15502
10
451.70484
20
1419.89502
10
457.28484
20
1418.03502
0
LWPOLYLINE
5
FD
100
AcDbEntity
8
symbols
6
ByLayer
62
256
370
-1
100
AcDbPolyline
90
6
70
0
10
482.18484
20
1434.71502
10
488.84484
20
1430.51502
10
484.70484
20
1419.23502
10
481.34484
20
1416.83502
10
479.84484
20
1420.49502
10
477.20484
20
1419.95502
0
LWPOLYLINE
5
FE
100
AcDbEntity
8
symbols
6
ByLayer
62
256
370
-1
100
AcDbPolyline
90
7
70
0
10
481.34484
20
1416.83502
10
484.70484
20
1408.55502
10
480.08484
20
1399.79502
10
470.66484
20
1396.31502
10
468.92484
20
1397.45502
10
472.40484
20
1403.27502
10
472.64484
20
1412.51502
0
LWPOLYLINE
5
FF
100
AcDbEntity
8
symbols
6
ByLayer
62
256
370
-1
100
AcDbPolyline
90
6
70
0
10
468.92484
20
1397.45502
10
465.74484
20
1392.53502
10
460.28484
20
1394.93502
10
454.76484
20
1397.69502
10
446.66484
20
1410.95502
10
451.40484
20
1420.07502
0
LWPOLYLINE
5
100
100
AcDbEntity
8
symbols
6
ByLayer
62
256
370
-1
100
AcDbPolyline
90
5
70
0
10
460.28484
20
1394.93502
10
455.54484
20
1392.47502
10
447.74484
20
1399.79502
10
447.08484
20
1403.75502
10
450.74484
20
1404.23502
0
LWPOLYLINE
5
101
100
AcDbEntity
8
symbols
6
ByLayer
62
256
370
-1
100
AcDbPolyline
90
7
70
0
10
447.08484
20
1403.75502
10
439.82484
20
1403.03502
10
430.40484
20
1408.73502
10
432.20484
20
1420.25502
10
433.28484
20
1421.09502
10
435.62484
20
1417.55502
10
446.66484
20
1410.95502
0
LWPOLYLINE
5
102
100
AcDbEntity
8
symbols
6
ByLayer
62
256
370
-1
100
AcDbPolyline
90
11
70
0
10
433.28484
20
1421.09502
10
429.20484
20
1428.11502
10
434.30484
20
1432.25502
10
438.74484
20
1435.79502
10
448.10484
20
1436.39502
10
447.62484
20
1426.79502
10
450.02484
20
1420.73502
10
462.92484
20
1429.61502
10
458.30484
20
1434.71502
10
448.28484
20
1437.53502
10
448.10484
20
1436.39502
0
LWPOLYLINE
5
103
100
AcDbEntity
8
symbols
6
ByLayer
62
256
370
-1
100
AcDbPolyline
90
6
70
0
10
434.30484
20
1432.25502
10
436.16484
20
1440.65502
10
446.30484
20
1443.53502
10
450.68484
20
1441.13502
10
453.44484
20
1446.77502
10
464.12484
20
1452.29502
0
LWPOLYLINE
5
104
100
AcDbEntity
8
symbols
6
ByLayer
62
256
370
-1
100
AcDbPolyline
90
2
70
0
10
450.68484
20
1441.13502
10
449.00484
20
1437.35502
0
LWPOLYLINE
5
105
100
AcDbEntity
8
symbols
6
ByLayer
62
256
370
-1
100
AcDbPolyline
90
1
70
0
10
404.333
20
852.00505
0
LWPOLYLINE
5
106
100
AcDbEntity
8
symbols
6
ByLayer
62
256
370
-1
100
AcDbPolyline
90
4
70
1
10
419.333
20
752.12405
10
419.333
20
951.88605
10
404.333
20
951.88605
10
404.333
20
752.12405
0
LWPOLYLINE
5
107
100
AcDbEntity
8
symbols
6
ByLayer
62
256
370
-1
100
AcDbPolyline
90
1
70
0
10
404.04428
20
1616.84046
0
LWPOLYLINE
5
108
100
AcDbEntity
8
symbols
6
ByLayer
62
256
370
-1
100
AcDbPolyline
90
4
70
1
10
419.04428
20
1566.84046
10
419.04428
20
1666.84046
10
404.04428
20
1666.84046
10
404.04428
20
1566.84046
0
LWPOLYLINE
5
109
100
AcDbEntity
8
symbols
6
ByLayer
62
256
370
-1
100
AcDbPolyline
90
8
70
1
10
795.33359
20
1198.99486
10
795.33359
20
973.99486
10
797.33359
20
973.99486
10
797.33359
20
983.99486
10
800.33359
20
986.99486
10
800.33359
20
1185.99486
10
797.33359
20
1188.99486
10
797.33359
20
1198.99486
0
LWPOLYLINE
5
10A
100
AcDbEntity
8
symbols
6
ByLayer
62
256
370
-1
100
AcDbPolyline
90
2
70
0
10
797.33359
20
983.99486
10
797.33359
20
1188.99486
0
LWPOLYLINE
5
10B
100
AcDbEntity
8
symbols
6
ByLayer
62
256
370
-1
100
AcDbPolyline
90
8
70
1
10
795.33231
20
974.30354
10
795.33231
20
749.30354
10
797.33231
20
749.30354
10
797.33231
20
759.30354
10
800.33231
20
762.30354
10
800.33231
20
961.30354
10
797.33231
20
964.30354
10
797.33231
20
974.30354
0
LWPOLYLINE
5
10C
100
AcDbEntity
8
symbols
6
ByLayer
62
256
370
-1
100
AcDbPolyline
90
2
70
0
10
797.33231
20
759.30354
10
797.33231
20
964.30354
0
LWPOLYLINE
5
10D
100
AcDbEntity
8
symbols
6
ByLayer
62
256
370
-1
100
AcDbPolyline
90
44
70
1
10
244.21445
20
1123.26217
10
244.27989156
20
1122.45114403
10
244.46935332
20
1121.68178328
10
244.77254091
20
1120.96438213
10
245.17915996
20
1120.30923494
10
245.67891609
20
1119.72663609
10
246.26151494
20
1119.22687996
10
246.91666213
20
1118.82026091
10
247.63406328
20
1118.51707332
10
248.40342403
20
1118.32761156
10
249.21445
20
1118.26217
10
399.21445
20
1118.26217
10
400.02547597
20
1118.32761156
10
400.79483672
20
1118.51707332
10
401.51223787
20
1118.82026091
10
402.16738506
20
1119.22687996
10
402.74998391
20
1119.72663609
10
403.24974004
20
1120.30923494
10
403.65635909
20
1120.96438213
10
403.95954668
20
1121.68178328
10
404.14900844
20
1122.45114403
10
404.21445
20
1123.26217
10
404.21445
20
1193.26217
10
404.14900844
20
1194.07319597
10
403.95954668
20
1194.84255672
10
403.65635909
20
1195.55995787
10
403.24974004
20
1196.21510506
10
402.74998391
20
1196.79770391
10
402.16738506
20
1197.29746004
10
401.51223787
20
1197.70407909
10
400.79483672
20
1198.00726668
10
400.02547597
20
1198.19672844
10
399.21445
20
1198.26217
10
249.21445
20
1198.26217
10
248.40342403
20
1198.19672844
10
247.63406328
20
1198.00726668
10
246.91666213
20
1197.70407909
10
246.26151494
20
1197.29746004
10
245.67891609
20
1196.79770391
10
245.17915996
20
1196.21510506
10
244.77254091
20
1195.55995787
10
244.46935332
20
1194.84255672
10
244.27989156
20
1194.07319597
10
244.21445
20
1193.26217
0
LWPOLYLINE
5
10E
100
AcDbEntity
8
symbols
6
ByLayer
62
256
370
-1
100
AcDbPolyline
90
44
70
1
10
496.15385967
20
1218.55384157
10
496.96443457
20
1218.62465157
10
497.73252401
20
1218.81920318
10
498.44790201
20
1219.1271341
10
499.10034258
20
1219.53808202
10
499.67961972
20
1220.04168464
10
500.17550747
20
1220.62757964
10
500.57777982
20
1221.28540473
10
500.87621079
20
1222.00479759
10
501.06057439
20
1222.77539591
10
501.12064464
20
1223.5868374
10
500.12748179
20
1373.58354946
10
500.05667179
20
1374.39412436
10
499.86212018
20
1375.1622138
10
499.55418926
20
1375.8775918
10
499.14324133
20
1376.53003236
10
498.63963872
20
1377.10930951
10
498.05374371
20
1377.60519725
10
497.39591863
20
1378.0074696
10
496.67652577
20
1378.30590057
10
495.90592744
20
1378.49026418
10
495.09448595
20
1378.55033443
10
425.09602033
20
1378.08685843
10
424.28544543
20
1378.01604843
10
423.51735599
20
1377.82149682
10
422.80197799
20
1377.5135659
10
422.14953742
20
1377.10261798
10
421.57026028
20
1376.59901536
10
421.07437253
20
1376.01312036
10
420.67210018
20
1375.35529527
10
420.37366921
20
1374.63590241
10
420.18930561
20
1373.86530409
10
420.12923536
20
1373.0538626
10
421.12239821
20
1223.05715054
10
421.19320821
20
1222.24657564
10
421.38775982
20
1221.4784862
10
421.69569074
20
1220.7631082
10
422.10663867
20
1220.11066764
10
422.61024128
20
1219.53139049
10
423.19613629
20
1219.03550275
10
423.85396137
20
1218.6332304
10
424.57335423
20
1218.33479943
10
425.34395256
20
1218.15043582
10
426.15539405
20
1218.09036557
0
LWPOLYLINE
5
10F
100
AcDbEntity
8
symbols
6
ByLayer
62
256
370
-1
100
AcDbPolyline
90
44
70
1
10
418.69013
20
1592.35677
10
418.75557156
20
1591.54574403
10
418.94503332
20
1590.77638328
10
419.24822091
20
1590.05898213
10
419.65483996
20
1589.40383494
10
420.15459609
20
1588.82123609
10
420.73719494
20
1588.32147996
10
421.39234213
20
1587.91486091
10
422.10974328
20
1587.61167332
10
422.87910403
20
1587.42221156
10
423.69013
20
1587.35677
10
573.69013
20
1587.35677
10
574.50115597
20
1587.42221156
10
575.27051672
20
1587.61167332
10
575.98791787
20
1587.91486091
10
576.64306506
20
1588.32147996
10
577.22566391
20
1588.82123609
10
577.72542004
20
1589.40383494
10
578.13203909
20
1590.05898213
10
578.43522668
20
1590.77638328
10
578.62468844
20
1591.54574403
10
578.69013
20
1592.35677
10
578.69013
20
1662.35677
10
578.62468844
20
1663.16779597
10
578.43522668
20
1663.93715672
10
578.13203909
20
1664.65455787
10
577.72542004
20
1665.30970506
10
577.22566391
20
1665.89230391
10
576.64306506
20
1666.39206004
10
575.98791787
20
1666.79867909
10
575.27051672
20
1667.10186668
10
574.50115597
20
1667.29132844
10
573.69013
20
1667.35677
10
423.69013
20
1667.35677
10
422.87910403
20
1667.29132844
10
422.10974328
20
1667.10186668
10
421.39234213
20
1666.79867909
10
420.73719494
20
1666.39206004
10
420.15459609
20
1665.89230391
10
419.65483996
20
1665.30970506
10
419.24822091
20
1664.65455787
10
418.94503332
20
1663.93715672
10
418.75557156
20
1663.16779597
10
418.69013
20
1662.35677
0
LWPOLYLINE
5
110
100
AcDbEntity
8
symbols
6
ByLayer
62
256
370
-1
100
AcDbPolyline
90
24
70
1
10
467.30721958
20
1187.73188691
10
434.48588634
20
1164.86793964
10
460.77942569
20
1127.12340642
10
461.19324838
20
1126.62095239
10
461.6694286
20
1126.20256036
10
462.19650146
20
1125.87028041
10
462.76300206
20
1125.62616266
10
463.3574655
20
1125.4722572
10
463.96842688
20
1125.41061413
10
464.58442129
20
1125.44328356
10
465.19398384
20
1125.57231558
10
465.78564962
20
1125.7997603
10
466.34795374
20
1126.12766782
10
492.60502033
20
1144.41882563
10
493.10747436
20
1144.83264831
10
493.5258664
20
1145.30882854
10
493.85814634
20
1145.8359014
10
494.10226409
20
1146.402402
10
494.25616955
20
1146.99686544
10
494.31781262
20
1147.60782681
10
494.28514319
20
1148.22382123
10
494.15611117
20
1148.83338377
10
493.92866645
20
1149.42504956
10
493.60075893
20
1149.98735368
0
LWPOLYLINE
5
111
100
AcDbEntity
8
symbols
6
ByLayer
62
256
370
-1
100
AcDbPolyline
90
4
70
0
10
470.45101233
20
1183.21895358
10
474.55367899
20
1186.07694699
10
494.2738335
20
1157.76854707
10
490.17116684
20
1154.91055367
0
LWPOLYLINE
5
112
100
AcDbEntity
8
symbols
6
ByLayer
62
256
370
-1
100
AcDbPolyline
90
4
70
0
10
437.62967909
20
1160.35500632
10
433.52701244
20
1157.49701292
10
453.24716695
20
1129.188613
10
457.3498336
20
1132.0466064
0
LWPOLYLINE
5
113
100
AcDbEntity
8
symbols
6
ByLayer
62
256
370
-1
100
AcDbPolyline
90
2
70
0
10
473.0232064
20
1179.5265536
10
440.20187316
20
1156.66260633
0
LWPOLYLINE
5
114
100
AcDbEntity
8
symbols
6
ByLayer
62
256
370
-1
100
AcDbPolyline
90
24
70
1
10
635.40432274
20
770.1723116
10
680.79915221
20
785.77069156
10
662.60104226
20
838.73132594
10
662.3406856
20
839.32791933
10
661.9973295
20
839.86074772
10
661.58143876
20
840.32469885
10
661.10347814
20
840.71466046
10
660.57391243
20
841.02552028
10
660.00320641
20
841.25216605
10
659.40182485
20
841.38948551
10
658.78023255
20
841.4323664
10
658.14889427
20
841.37569645
10
657.51827481
20
841.2143634
10
619.68925025
20
828.21571344
10
619.09265686
20
827.95535678
10
618.55982847
20
827.61200068
10
618.09587734
20
827.19610994
10
617.70591573
20
826.71814932
10
617.39505591
20
826.18858361
10
617.16841014
20
825.61787758
10
617.03109068
20
825.01649603
10
616.98820979
20
824.39490373
10
617.04487974
20
823.76356545
10
617.20621279
20
823.13294599
0
LWPOLYLINE
5
115
100
AcDbEntity
8
symbols
6
ByLayer
62
256
370
-1
100
AcDbPolyline
90
4
70
0
10
633.25954549
20
776.41410065
10
627.58519181
20
774.46430316
10
614.1315891
20
813.61734358
10
619.80594278
20
815.56714107
0
LWPOLYLINE
5
116
100
AcDbEntity
8
symbols
6
ByLayer
62
256
370
-1
100
AcDbPolyline
90
4
70
0
10
678.65437496
20
792.01248061
10
684.32872865
20
793.96227811
10
670.87512594
20
833.11531852
10
665.20077225
20
831.16552103
0
LWPOLYLINE
5
117
100
AcDbEntity
8
symbols
6
ByLayer
62
256
370
-1
100
AcDbPolyline
90
2
70
0
10
631.50472775
20
781.52101897
10
676.89955722
20
797.11939893
0
LWPOLYLINE
5
118
100
AcDbEntity
8
symbols
6
ByLayer
62
256
370
-1
100
AcDbPolyline
90
121
70
0
10
655.39328323
20
1450.75054721
10
653.6248713
20
1450.66383354
10
651.8570506
20
1450.59310895
10
650.08982113
20
1450.53837343
10
648.32318287
20
1450.49962698
10
646.55713585
20
1450.47686961
10
644.79168004
20
1450.47010131
10
643.02681547
20
1450.47932208
10
641.26254211
20
1450.50453192
10
639.49885999
20
1450.54573084
10
637.73576908
20
1450.60291883
10
635.9732694
20
1450.6760959
10
634.21136095
20
1450.76526203
10
632.45004372
20
1450.87041724
10
630.68931772
20
1450.99156152
10
628.92918294
20
1451.12869488
10
627.16963938
20
1451.28181731
10
625.41068705
20
1451.45092881
10
623.65232594
20
1451.63602938
10
621.89455606
20
1451.83711903
10
620.13737741
20
1452.05419775
10
619.94465554
20
1453.61944436
10
619.77115107
20
1455.18463498
10
619.61686399
20
1456.74976961
10
619.48179431
20
1458.31484825
10
619.36594202
20
1459.87987091
10
619.26930714
20
1461.44483758
10
619.19188965
20
1463.00974827
10
619.13368955
20
1464.57460296
10
619.09470685
20
1466.13940167
10
619.07494155
20
1467.7041444
10
619.07677507
20
1468.90195094
10
619.09782599
20
1470.0997015
10
619.1380943
20
1471.29739607
10
619.19758002
20
1472.49503465
10
619.27628312
20
1473.69261725
10
619.37420363
20
1474.89014385
10
619.49134153
20
1476.08761448
10
619.62769682
20
1477.28502911
10
619.78326952
20
1478.48238776
10
619.95805961
20
1479.67969042
10
619.72518601
20
1479.90714094
10
619.52020699
20
1480.13651977
10
619.34312254
20
1480.36782693
10
619.19393266
20
1480.60106239
10
619.07263736
20
1480.83622617
10
618.97923662
20
1481.07331826
10
618.91373046
20
1481.31233867
10
618.87611887
20
1481.5532874
10
618.86640185
20
1481.79616443
10
618.8845794
20
1482.04096978
10
619.00594561
20
1482.86373717
10
619.1552064
20
1483.68843286
10
619.33236175
20
1484.51505687
10
619.53741167
20
1485.34360919
10
619.77035617
20
1486.17408983
10
620.03119524
20
1487.00649878
10
620.31992888
20
1487.84083605
10
620.63655709
20
1488.67710163
10
620.98107988
20
1489.51529553
10
621.35349724
20
1490.35541774
10
623.14245717
20
1490.45658199
10
624.93076675
20
1490.54015826
10
626.71842599
20
1490.60614656
10
628.50543488
20
1490.65454687
10
630.29179342
20
1490.68535921
10
632.07750161
20
1490.69858356
10
633.86255946
20
1490.69421993
10
635.64696696
20
1490.67226832
10
637.43072411
20
1490.63272874
10
639.21383092
20
1490.57560117
10
640.99628738
20
1490.50088562
10
642.77809349
20
1490.40858209
10
644.55924925
20
1490.29869058
10
646.33975467
20
1490.17121109
10
648.11960974
20
1490.02614363
10
649.89881446
20
1489.86348818
10
651.67736884
20
1489.68324475
10
653.45527287
20
1489.48541334
10
655.23252655
20
1489.26999395
10
657.00912988
20
1489.03698658
10
657.318485
20
1488.1716546
10
657.60016413
20
1487.31030577
10
657.85416728
20
1486.45294006
10
658.08049445
20
1485.5995575
10
658.27914563
20
1484.75015807
10
658.45012082
20
1483.90474177
10
658.59342003
20
1483.06330861
10
658.70904325
20
1482.22585859
10
658.79699049
20
1481.3923917
10
658.85726174
20
1480.56290795
10
658.85731014
20
1480.31742866
10
658.82968255
20
1480.07593251
10
658.77437897
20
1479.83841949
10
658.69139941
20
1479.60488961
10
658.58074387
20
1479.37534286
10
658.44241234
20
1479.14977925
10
658.27640482
20
1478.92819878
10
658.08272132
20
1478.71060144
10
657.86136184
20
1478.49698723
10
657.61232637
20
1478.28735617
10
657.69821519
20
1477.08041443
10
657.76493497
20
1475.87483612
10
657.81248569
20
1474.67062123
10
657.84086737
20
1473.46776976
10
657.85007999
20
1472.26628172
10
657.84012356
20
1471.06615709
10
657.81099808
20
1469.86739588
10
657.76270354
20
1468.66999809
10
657.69523996
20
1467.47396373
10
657.60860732
20
1466.27929278
10
657.47333564
20
1464.72028283
10
657.31889492
20
1463.1626363
10
657.14528513
20
1461.60635319
10
656.9525063
20
1460.0514335
10
656.74055842
20
1458.49787724
10
656.50944148
20
1456.94568439
10
656.2591555
20
1455.39485496
10
655.98970046
20
1453.84538896
10
655.70107637
20
1452.29728637
10
655.39328323
20
1450.75054721
0
LWPOLYLINE
5
119
100
AcDbEntity
8
symbols
6
ByLayer
62
256
370
-1
100
AcDbPolyline
90
21
70
0
10
619.95805961
20
1479.67969042
10
621.83515631
20
1479.45817751
10
623.71284424
20
1479.25265368
10
625.59112339
20
1479.06311892
10
627.46999377
20
1478.88957323
10
629.34945537
20
1478.73201662
10
631.22950819
20
1478.59044908
10
633.11015225
20
1478.46487061
10
634.99138752
20
1478.35528121
10
636.87321402
20
1478.26168089
10
638.75563175
20
1478.18406964
10
640.6386407
20
1478.12244747
10
642.52224087
20
1478.07681436
10
644.40643227
20
1478.04717033
10
646.2912149
20
1478.03351538
10
648.17658875
20
1478.03584949
10
650.06255382
20
1478.05417268
10
651.94911012
20
1478.08848494
10
653.83625765
20
1478.13878628
10
655.72399639
20
1478.20507669
10
657.61232637
20
1478.28735617
0
LWPOLYLINE
5
11A
100
AcDbEntity
8
symbols
6
ByLayer
62
256
370
-1
100
AcDbPolyline
90
31
70
0
10
620.65333378
20
1488.74018675
10
620.90069457
20
1488.57741478
10
621.15102313
20
1488.42999262
10
621.40431946
20
1488.29792027
10
621.66058357
20
1488.18119772
10
621.91981546
20
1488.07982497
10
622.18201512
20
1487.99380204
10
622.44718256
20
1487.9231289
10
622.71531777
20
1487.86780558
10
622.98642076
20
1487.82783205
10
623.26049152
20
1487.80320834
10
627.54923243
20
1487.5402725
10
631.08765776
20
1487.32827025
10
634.0635605
20
1487.1602576
10
636.6647336
20
1487.02929057
10
639.07897003
20
1486.92842518
10
641.49406275
20
1486.85071744
10
644.09780474
20
1486.78922337
10
647.07798895
20
1486.73699899
10
650.62240836
20
1486.68710032
10
654.91885593
20
1486.63258336
10
655.19399678
20
1486.63689899
10
655.46731158
20
1486.65674169
10
655.73880033
20
1486.69211145
10
656.00846303
20
1486.74300827
10
656.27629969
20
1486.80943216
10
656.5423103
20
1486.89138312
10
656.80649486
20
1486.98886115
10
657.06885338
20
1487.10186624
10
657.32938584
20
1487.23039839
10
657.58809226
20
1487.37445761
0
LWPOLYLINE
5
11B
100
AcDbEntity
8
symbols
6
ByLayer
62
256
370
-1
100
AcDbPolyline
90
121
70
0
10
653.21315583
20
1401.823637
10
653.54259268
20
1403.56325517
10
653.8874365
20
1405.29855766
10
654.2476873
20
1407.02954448
10
654.62334507
20
1408.75621562
10
655.01440983
20
1410.47857109
10
655.42088156
20
1412.19661088
10
655.84276027
20
1413.910335
10
656.28004596
20
1415.61974344
10
656.73273862
20
1417.32483621
10
657.20083826
20
1419.02561331
10
657.68434488
20
1420.72207473
10
658.18325847
20
1422.41422047
10
658.69757905
20
1424.10205054
10
659.2273066
20
1425.78556494
10
659.77244113
20
1427.46476366
10
660.33298263
20
1429.13964671
10
660.90893112
20
1430.81021408
10
661.50028658
20
1432.47646578
10
662.10704901
20
1434.1384018
10
662.72921843
20
1435.79602215
10
664.2961121
20
1435.61718456
10
665.85845517
20
1435.41967604
10
667.41624763
20
1435.20349659
10
668.9694895
20
1434.96864622
10
670.51818076
20
1434.71512492
10
672.06232142
20
1434.4429327
10
673.60191148
20
1434.15206955
10
675.13695093
20
1433.84253548
10
676.66743979
20
1433.51433048
10
678.19337804
20
1433.16745455
10
679.35751094
20
1432.88542893
10
680.51709325
20
1432.58473239
10
681.67212496
20
1432.26536492
10
682.82260606
20
1431.92732652
10
683.96853656
20
1431.57061719
10
685.10991646
20
1431.19523695
10
686.24674575
20
1430.80118577
10
687.37902445
20
1430.38846367
10
688.50675254
20
1429.95707064
10
689.62993003
20
1429.50700669
10
689.90555166
20
1429.68020185
10
690.17652178
20
1429.82582549
10
690.44284039
20
1429.9438776
10
690.70450748
20
1430.03435819
10
690.96152305
20
1430.09726726
10
691.2138871
20
1430.1326048
10
691.46159964
20
1430.14037082
10
691.70466066
20
1430.12056531
10
691.94307017
20
1430.07318828
10
692.17682816
20
1429.99823973
10
692.94836469
20
1429.68774447
10
693.7152497
20
1429.34967769
10
694.4774832
20
1428.98403939
10
695.23506518
20
1428.59082956
10
695.98799564
20
1428.17004821
10
696.73627459
20
1427.72169533
10
697.47990202
20
1427.24577093
10
698.21887793
20
1426.74227501
10
698.95320233
20
1426.21120756
10
699.68287521
20
1425.65256859
10
699.3626804
20
1423.88959181
10
699.02553792
20
1422.13136227
10
698.67144776
20
1420.37787998
10
698.30040993
20
1418.62914492
10
697.91242442
20
1416.88515711
10
697.50749123
20
1415.14591655
10
697.08561037
20
1413.41142322
10
696.64678184
20
1411.68167713
10
696.19100563
20
1409.95667829
10
695.71828174
20
1408.23642669
10
695.22861018
20
1406.52092233
10
694.72199094
20
1404.81016522
10
694.19842403
20
1403.10415534
10
693.65790945
20
1401.40289271
10
693.10044718
20
1399.70637732
10
692.52603725
20
1398.01460917
10
691.93467964
20
1396.32758827
10
691.32637435
20
1394.64531461
10
690.70112139
20
1392.96778818
10
690.05892075
20
1391.29500901
10
689.14522793
20
1391.196696
10
688.24188287
20
1391.12435893
10
687.34888556
20
1391.0779978
10
686.46623601
20
1391.05761261
10
685.59393421
20
1391.06320337
10
684.73198017
20
1391.09477006
10
683.88037388
20
1391.1523127
10
683.03911534
20
1391.23583127
10
682.20820457
20
1391.34532579
10
681.38764154
20
1391.48079625
10
681.14896412
20
1391.53818238
10
680.92063444
20
1391.62154446
10
680.70265252
20
1391.73088247
10
680.49501836
20
1391.86619643
10
680.29773195
20
1392.02748633
10
680.1107933
20
1392.21475217
10
679.9342024
20
1392.42799395
10
679.76795926
20
1392.66721167
10
679.61206387
20
1392.93240533
10
679.46651623
20
1393.22357493
10
678.27297786
20
1393.4224502
10
677.08524991
20
1393.6396435
10
675.90333241
20
1393.87515484
10
674.72722535
20
1394.1289842
10
673.55692872
20
1394.40113159
10
672.39244253
20
1394.69159702
10
671.23376677
20
1395.00038048
10
670.08090146
20
1395.32748197
10
668.93384658
20
1395.67290149
10
667.79260214
20
1396.03663904
10
666.30851054
20
1396.53290769
10
664.83022938
20
1397.04749438
10
663.35775865
20
1397.5803991
10
661.89109837
20
1398.13162185
10
660.43024852
20
1398.70116263
10
658.9752091
20
1399.28902144
10
657.52598013
20
1399.89519828
10
656.08256159
20
1400.51969316
10
654.64495349
20
1401.16250606
10
653.21315583
20
1401.823637
0
LWPOLYLINE
5
11C
100
AcDbEntity
8
symbols
6
ByLayer
62
256
370
-1
100
AcDbPolyline
90
21
70
0
10
689.62993003
20
1429.50700669
10
688.97539305
20
1427.73383401
10
688.33626305
20
1425.95634566
10
687.71254003
20
1424.17454163
10
687.10422399
20
1422.38842193
10
686.51131493
20
1420.59798655
10
685.93381284
20
1418.8032355
10
685.37171773
20
1417.00416877
10
684.8250296
20
1415.20078637
10
684.29374844
20
1413.39308829
10
683.77787426
20
1411.58107454
10
683.27740706
20
1409.76474512
10
682.79234684
20
1407.94410002
10
682.32269359
20
1406.11913924
10
681.86844732
20
1404.28986279
10
681.42960803
20
1402.45627067
10
681.00617572
20
1400.61836287
10
680.59815038
20
1398.7761394
10
680.20553202
20
1396.92960025
10
679.82832064
20
1395.07874543
10
679.46651623
20
1393.22357493
0
LWPOLYLINE
5
11D
100
AcDbEntity
8
symbols
6
ByLayer
62
256
370
-1
100
AcDbPolyline
90
31
70
0
10
698.27628702
20
1426.71120434
10
698.06015933
20
1426.50879165
10
697.85826108
20
1426.29990226
10
697.67059225
20
1426.08453618
10
697.49715284
20
1425.86269339
10
697.33794287
20
1425.63437391
10
697.19296232
20
1425.39957772
10
697.0622112
20
1425.15830484
10
696.9456895
20
1424.91055525
10
696.84339723
20
1424.65632897
10
696.75533439
20
1424.39562599
10
695.49628749
20
1420.28743481
10
694.46230698
20
1416.89681789
10
693.6027049
20
1414.04281901
10
692.8667933
20
1411.54448196
10
692.20388424
20
1409.22085055
10
691.56328975
20
1406.89096857
10
690.89432189
20
1404.3738798
10
690.14629271
20
1401.48862805
10
689.26851426
20
1398.0542571
10
688.21029859
20
1393.88981075
10
688.15012153
20
1393.62129663
10
688.10546781
20
1393.35092511
10
688.07633745
20
1393.07869619
10
688.06273043
20
1392.80460988
10
688.06464675
20
1392.52866616
10
688.08208643
20
1392.25086504
10
688.11504945
20
1391.97120652
10
688.16353581
20
1391.6896906
10
688.22754552
20
1391.40631728
10
688.30707858
20
1391.12108656
0
LWPOLYLINE
5
11E
100
AcDbEntity
8
symbols
6
ByLayer
62
256
370
-1
100
AcDbPolyline
90
121
70
0
10
616.51137743
20
1397.04781569
10
618.28174916
20
1397.07198104
10
620.05096498
20
1397.0801882
10
621.81902492
20
1397.07243717
10
623.58592895
20
1397.04872794
10
625.35167709
20
1397.00906052
10
627.11626934
20
1396.95343491
10
628.87970569
20
1396.8818511
10
630.64198614
20
1396.79430911
10
632.4031107
20
1396.69080892
10
634.16307936
20
1396.57135054
10
635.92189213
20
1396.43593396
10
637.679549
20
1396.2845592
10
639.43604998
20
1396.11722624
10
641.19139506
20
1395.93393509
10
642.94558425
20
1395.73468574
10
644.69861754
20
1395.51947821
10
646.45049493
20
1395.28831248
10
648.20121643
20
1395.04118856
10
649.95078203
20
1394.77810644
10
651.69919174
20
1394.49906614
10
651.83647877
20
1392.92798659
10
651.95456238
20
1391.35764213
10
652.05344258
20
1389.78803274
10
652.13311936
20
1388.21915843
10
652.19359273
20
1386.6510192
10
652.23486268
20
1385.08361505
10
652.25692922
20
1383.51694598
10
652.25979235
20
1381.95101198
10
652.24345206
20
1380.38581307
10
652.20790836
20
1378.82134923
10
652.16374654
20
1377.62435566
10
652.10038129
20
1376.42809716
10
652.01781264
20
1375.23257375
10
651.91604057
20
1374.03778541
10
651.79506508
20
1372.84373215
10
651.65488619
20
1371.65041397
10
651.49550387
20
1370.45783087
10
651.31691815
20
1369.26598285
10
651.11912901
20
1368.0748699
10
650.90213645
20
1366.88449204
10
651.12682668
20
1366.64895403
10
651.32357162
20
1366.41247469
10
651.49237126
20
1366.17505401
10
651.63322561
20
1365.93669198
10
651.74613467
20
1365.69738862
10
651.83109844
20
1365.45714392
10
651.88811691
20
1365.21595788
10
651.91719008
20
1364.97383049
10
651.91831797
20
1364.73076177
10
651.89150056
20
1364.48675171
10
651.74113427
20
1363.66878723
10
651.56282268
20
1362.8498814
10
651.3565658
20
1362.03003424
10
651.12236363
20
1361.20924573
10
650.86021617
20
1360.38751589
10
650.57012341
20
1359.56484471
10
650.25208536
20
1358.74123218
10
649.90610202
20
1357.91667832
10
649.53217338
20
1357.09118312
10
649.13029945
20
1356.26474658
10
647.33888188
20
1356.22686581
10
645.54873581
20
1356.20653906
10
643.75986121
20
1356.20376632
10
641.9722581
20
1356.21854759
10
640.18592648
20
1356.25088287
10
638.40086634
20
1356.30077217
10
636.61707769
20
1356.36821547
10
634.83456052
20
1356.45321279
10
633.05331484
20
1356.55576412
10
631.27334064
20
1356.67586946
10
629.49463792
20
1356.81352882
10
627.7172067
20
1356.96874218
10
625.94104695
20
1357.14150956
10
624.16615869
20
1357.33183095
10
622.39254192
20
1357.53970634
10
620.62019663
20
1357.76513576
10
618.84912283
20
1358.00811918
10
617.07932051
20
1358.26865661
10
615.31078968
20
1358.54674806
10
613.54353033
20
1358.84239352
10
613.26494853
20
1359.71811733
10
613.01388466
20
1360.58888245
10
612.79033873
20
1361.45468887
10
612.59431074
20
1362.3155366
10
612.42580069
20
1363.17142564
10
612.28480857
20
1364.02235599
10
612.17133439
20
1364.86832764
10
612.08537815
20
1365.7093406
10
612.02693985
20
1366.54539486
10
611.99601948
20
1367.37649043
10
612.00464614
20
1367.6218181
10
612.04079074
20
1367.86218708
10
612.10445328
20
1368.09759736
10
612.19563375
20
1368.32804894
10
612.31433216
20
1368.55354184
10
612.46054851
20
1368.77407604
10
612.6342828
20
1368.98965155
10
612.83553502
20
1369.20026836
10
613.06430518
20
1369.40592649
10
613.32059328
20
1369.60662591
10
613.27741038
20
1370.815849
10
613.25333638
20
1372.0230321
10
613.24837127
20
1373.22817521
10
613.26251506
20
1374.43127834
10
613.29576774
20
1375.63234147
10
613.34812933
20
1376.83136463
10
613.4195998
20
1378.02834779
10
613.51017917
20
1379.22329097
10
613.61986744
20
1380.41619416
10
613.74866461
20
1381.60705736
10
613.93894586
20
1383.16031314
10
614.148336
20
1384.71152892
10
614.37683505
20
1386.26070472
10
614.62444299
20
1387.80784054
10
614.89115982
20
1389.35293636
10
615.17698555
20
1390.8959922
10
615.48192018
20
1392.43700806
10
615.8059637
20
1393.97598392
10
616.14911612
20
1395.5129198
10
616.51137743
20
1397.04781569
0
LWPOLYLINE
5
11F
100
AcDbEntity
8
symbols
6
ByLayer
62
256
370
-1
100
AcDbPolyline
90
21
70
0
10
650.90213645
20
1366.88449204
10
649.0340403
20
1367.17220156
10
647.16478826
20
1367.44395289
10
645.29438031
20
1367.69974602
10
643.42281647
20
1367.93958097
10
641.55009674
20
1368.16345772
10
639.67622111
20
1368.37137628
10
637.80118959
20
1368.56333665
10
635.92500217
20
1368.73933882
10
634.04765885
20
1368.89938281
10
632.16915964
20
1369.0434686
10
630.28950454
20
1369.17159619
10
628.40869353
20
1369.2837656
10
626.52672664
20
1369.37997681
10
624.64360384
20
1369.46022983
10
622.75932516
20
1369.52452466
10
620.87389057
20
1369.5728613
10
618.98730009
20
1369.60523974
10
617.09955372
20
1369.62165999
10
615.21065145
20
1369.62212205
10
613.32059328
20
1369.60662591
0
LWPOLYLINE
5
120
100
AcDbEntity
8
symbols
6
ByLayer
62
256
370
-1
100
AcDbPolyline
90
31
70
0
10
649.88710643
20
1357.85422548
10
649.64565238
20
1358.02563729
10
649.40068995
20
1358.18181377
10
649.15221915
20
1358.3227549
10
648.90023998
20
1358.44846069
10
648.64475245
20
1358.55893115
10
648.38575654
20
1358.65416627
10
648.12325226
20
1358.73416604
10
647.85723961
20
1358.79893048
10
647.58771859
20
1358.84845958
10
647.3146892
20
1358.88275334
10
643.03791906
20
1359.29708534
10
639.50919588
20
1359.63400007
10
636.54108938
20
1359.90707361
10
633.94616929
20
1360.12988205
10
631.53700535
20
1360.31600148
10
629.12616727
20
1360.47900797
10
626.52622478
20
1360.63247763
10
623.54974762
20
1360.78998652
10
620.00930552
20
1360.96511076
10
615.71746819
20
1361.17142641
10
615.44234669
20
1361.17683672
10
615.16850138
20
1361.16666513
10
614.89593227
20
1361.14091164
10
614.62463935
20
1361.09957625
10
614.35462263
20
1361.04265896
10
614.0858821
20
1360.97015978
10
613.81841777
20
1360.8820787
10
613.55222962
20
1360.77841572
10
613.28731768
20
1360.65917084
10
613.02368192
20
1360.52434406
0
LWPOLYLINE
5
121
100
AcDbEntity
8
symbols
6
ByLayer
62
256
370
-1
100
AcDbPolyline
90
121
70
0
10
616.66062642
20
1442.04331178
10
616.27138046
20
1440.31609217
10
615.86688555
20
1438.5937171
10
615.44714169
20
1436.87618658
10
615.01214888
20
1435.1635006
10
614.56190713
20
1433.45565917
10
614.09641643
20
1431.75266227
10
613.61567678
20
1430.05450993
10
613.11968819
20
1428.36120213
10
612.60845065
20
1426.67273887
10
612.08196416
20
1424.98912015
10
611.54022872
20
1423.31034598
10
610.98324434
20
1421.63641635
10
610.41101101
20
1419.96733127
10
609.82352873
20
1418.30309073
10
609.22079751
20
1416.64369474
10
608.60281733
20
1414.98914328
10
607.96958821
20
1413.33943638
10
607.32111014
20
1411.69457401
10
606.65738313
20
1410.05455619
10
605.97840717
20
1408.41938292
10
604.41861461
20
1408.65216141
10
602.86401396
20
1408.90344275
10
601.31460523
20
1409.17322694
10
599.77038842
20
1409.46151399
10
598.23136352
20
1409.76830388
10
596.69753054
20
1410.09359662
10
595.16888948
20
1410.43739222
10
593.64544033
20
1410.79969066
10
592.12718309
20
1411.18049195
10
590.61411778
20
1411.5797961
10
589.4604056
20
1411.90180867
10
588.31188534
20
1412.24232409
10
587.168557
20
1412.60134236
10
586.03042057
20
1412.97886348
10
584.89747606
20
1413.37488745
10
583.76972346
20
1413.78941427
10
582.64716278
20
1414.22244394
10
581.52979402
20
1414.67397646
10
580.41761717
20
1415.14401184
10
579.31063224
20
1415.63255006
10
579.02920054
20
1415.46896506
10
578.75336863
20
1415.33277473
10
578.4831365
20
1415.22397907
10
578.21850415
20
1415.14257808
10
577.95947158
20
1415.08857176
10
577.70603879
20
1415.06196012
10
577.45820578
20
1415.06274314
10
577.21597255
20
1415.09092084
10
576.97933911
20
1415.1464932
10
576.74830544
20
1415.22946024
10
575.98793804
20
1415.56638356
10
575.23317041
20
1415.93070156
10
574.48400257
20
1416.32241422
10
573.7404345
20
1416.74152156
10
573.00246622
20
1417.18802357
10
572.27009772
20
1417.66192024
10
571.543329
20
1418.16321159
10
570.82216006
20
1418.69189761
10
570.1065909
20
1419.2479783
10
569.39662152
20
1419.83145366
10
569.77743666
20
1421.58233677
10
570.17502565
20
1423.32789089
10
570.58938847
20
1425.068116
10
571.02052514
20
1426.80301212
10
571.46843565
20
1428.53257923
10
571.93312001
20
1430.25681735
10
572.4145782
20
1431.97572647
10
572.91281024
20
1433.6893066
10
573.42781612
20
1435.39755772
10
573.95959584
20
1437.10047985
10
574.5081494
20
1438.79807298
10
575.07347681
20
1440.49033711
10
575.65557806
20
1442.17727224
10
576.25445315
20
1443.85887837
10
576.87010208
20
1445.5351555
10
577.50252485
20
1447.20610364
10
578.15172147
20
1448.87172278
10
578.81769193
20
1450.53201292
10
579.50043623
20
1452.18697406
10
580.19995437
20
1453.83660621
10
581.11649461
20
1453.90334444
10
582.02179727
20
1453.94447912
10
582.91586233
20
1453.96001024
10
583.79868979
20
1453.94993781
10
584.67027967
20
1453.91426182
10
585.53063195
20
1453.85298228
10
586.37974664
20
1453.76609918
10
587.21762373
20
1453.65361253
10
588.04426323
20
1453.51552232
10
588.85966514
20
1453.35182856
10
589.0962211
20
1453.2862438
10
589.32153947
20
1453.19505549
10
589.53562025
20
1453.07826362
10
589.73846343
20
1452.9358682
10
589.93006902
20
1452.76786923
10
590.11043701
20
1452.57426669
10
590.27956742
20
1452.35506061
10
590.43746023
20
1452.11025096
10
590.58411545
20
1451.83983777
10
590.71953307
20
1451.54382101
10
591.90550135
20
1451.30389502
10
593.08503079
20
1451.04586232
10
594.25812141
20
1450.76972291
10
595.4247732
20
1450.47547679
10
596.58498616
20
1450.16312396
10
597.73876029
20
1449.83266442
10
598.88609559
20
1449.48409817
10
600.02699206
20
1449.11742521
10
601.16144971
20
1448.73264554
10
602.28946852
20
1448.32975916
10
603.75555904
20
1447.78259461
10
605.21521073
20
1447.21732336
10
606.6684236
20
1446.63394539
10
608.11519763
20
1446.03246072
10
609.55553283
20
1445.41286934
10
610.98942921
20
1444.77517124
10
612.41688676
20
1444.11936644
10
613.83790547
20
1443.44545493
10
615.25248536
20
1442.75343671
10
616.66062642
20
1442.04331178
0
LWPOLYLINE
5
122
100
AcDbEntity
8
symbols
6
ByLayer
62
256
370
-1
100
AcDbPolyline
90
21
70
0
10
579.31063224
20
1415.63255006
10
580.02594228
20
1417.38209044
10
580.72600337
20
1419.13647536
10
581.41081552
20
1420.89570483
10
582.08037872
20
1422.65977884
10
582.73469297
20
1424.4286974
10
583.37375827
20
1426.2024605
10
583.99757463
20
1427.98106815
10
584.60614204
20
1429.76452033
10
585.1994605
20
1431.55281707
10
585.77753002
20
1433.34595834
10
586.34035059
20
1435.14394416
10
586.88792221
20
1436.94677453
10
587.42024488
20
1438.75444943
10
587.93731861
20
1440.56696888
10
588.43914339
20
1442.38433288
10
588.92571922
20
1444.20654142
10
589.3970461
20
1446.0335945
10
589.85312404
20
1447.86549213
10
590.29395303
20
1449.7022343
10
590.71953307
20
1451.54382101
0
LWPOLYLINE
5
123
100
AcDbEntity
8
symbols
6
ByLayer
62
256
370
-1
100
AcDbPolyline
90
31
70
0
10
570.76585686
20
1418.72493002
10
570.98883782
20
1418.9197673
10
571.19782121
20
1419.12156825
10
571.39280705
20
1419.33033286
10
571.57379533
20
1419.54606114
10
571.74078606
20
1419.76875308
10
571.89377923
20
1419.99840869
10
572.03277484
20
1420.23502796
10
572.1577729
20
1420.4786109
10
572.2687734
20
1420.72915751
10
572.36577634
20
1420.98666778
10
573.76577905
20
1425.04898562
10
574.91609781
20
1428.40191949
10
575.87363218
20
1431.22456954
10
576.69528172
20
1433.69603588
10
577.43794601
20
1435.99541865
10
578.15852459
20
1438.30181798
10
578.91391705
20
1440.79433399
10
579.76102292
20
1443.65206683
10
580.75674179
20
1447.05411662
10
581.95797322
20
1451.17958349
10
582.0273764
20
1451.44586212
10
582.08132955
20
1451.71453249
10
582.11983265
20
1451.98559461
10
582.14288572
20
1452.25904848
10
582.15048874
20
1452.53489409
10
582.14264172
20
1452.81313145
10
582.11934466
20
1453.09376056
10
582.08059755
20
1453.37678141
10
582.02640041
20
1453.66219401
10
581.95675322
20
1453.94999835
0
LWPOLYLINE
5
124
100
AcDbEntity
8
symbols
6
ByLayer
62
256
370
-1
100
AcDbPolyline
90
24
70
1
10
274.45070351
20
651.97881909
10
322.45050654
20
651.84130713
10
322.61093716
20
707.84107732
10
322.56044289
20
708.49004542
10
322.41063737
20
709.10596572
10
322.16973248
20
709.68057915
10
321.84594009
20
710.20562666
10
321.44747206
20
710.6728492
10
320.98254027
20
711.07398771
10
320.45935659
20
711.40078312
10
319.88613289
20
711.64497639
10
319.27108103
20
711.79830845
10
318.6224129
20
711.85252024
10
278.62257705
20
711.96711354
10
277.97360895
20
711.91661927
10
277.35768866
20
711.76681376
10
276.78307522
20
711.52590887
10
276.25802771
20
711.20211647
10
275.79080517
20
710.80364844
10
275.38966667
20
710.33871665
10
275.06287125
20
709.81553297
10
274.81867799
20
709.24230927
10
274.66534593
20
708.62725742
10
274.61113413
20
707.97858929
0
LWPOLYLINE
5
125
100
AcDbEntity
8
symbols
6
ByLayer
62
256
370
-1
100
AcDbPolyline
90
4
70
0
10
274.46961141
20
658.57879201
10
268.46963603
20
658.595981
10
268.58824009
20
699.99581111
10
274.58821547
20
699.97862211
0
LWPOLYLINE
5
126
100
AcDbEntity
8
symbols
6
ByLayer
62
256
370
-1
100
AcDbPolyline
90
4
70
0
10
322.46941443
20
658.44128004
10
328.46938981
20
658.42409105
10
328.58799388
20
699.82392116
10
322.5880185
20
699.84111015
0
LWPOLYLINE
5
127
100
AcDbEntity
8
symbols
6
ByLayer
62
256
370
-1
100
AcDbPolyline
90
2
70
0
10
274.4850815
20
663.97876985
10
322.48488453
20
663.84125789
0
LWPOLYLINE
5
128
100
AcDbEntity
8
symbols
6
ByLayer
62
256
370
-1
100
AcDbPolyline
90
24
70
1
10
382.06672351
20
655.10173909
10
430.06652654
20
654.96422713
10
430.22695716
20
710.96399732
10
430.17646289
20
711.61296542
10
430.02665737
20
712.22888572
10
429.78575248
20
712.80349915
10
429.46196009
20
713.32854666
10
429.06349206
20
713.7957692
10
428.59856027
20
714.19690771
10
428.07537659
20
714.52370312
10
427.50215289
20
714.76789639
10
426.88710103
20
714.92122845
10
426.2384329
20
714.97544024
10
386.23859705
20
715.09003354
10
385.58962895
20
715.03953927
10
384.97370866
20
714.88973376
10
384.39909522
20
714.64882887
10
383.87404771
20
714.32503647
10
383.40682517
20
713.92656844
10
383.00568667
20
713.46163665
10
382.67889125
20
712.93845297
10
382.43469799
20
712.36522927
10
382.28136593
20
711.75017742
10
382.22715413
20
711.10150929
0
LWPOLYLINE
5
129
100
AcDbEntity
8
symbols
6
ByLayer
62
256
370
-1
100
AcDbPolyline
90
4
70
0
10
382.08563141
20
661.70171201
10
376.08565603
20
661.718901
10
376.20426009
20
703.11873111
10
382.20423547
20
703.10154211
0
LWPOLYLINE
5
12A
100
AcDbEntity
8
symbols
6
ByLayer
62
256
370
-1
100
AcDbPolyline
90
4
70
0
10
430.08543443
20
661.56420004
10
436.08540981
20
661.54701105
10
436.20401388
20
702.94684116
10
430.2040385
20
702.96403015
0
LWPOLYLINE
5
12B
100
AcDbEntity
8
symbols
6
ByLayer
62
256
370
-1
100
AcDbPolyline
90
2
70
0
10
382.1011015
20
667.10168985
10
430.10090453
20
666.96417789
0
LWPOLYLINE
5
12C
100
AcDbEntity
8
symbols
6
ByLayer
62
256
370
-1
100
AcDbPolyline
90
24
70
1
10
495.17325351
20
658.47863909
10
543.17305654
20
658.34112713
10
543.33348716
20
714.34089732
10
543.28299289
20
714.98986542
10
543.13318737
20
715.60578572
10
542.89228248
20
716.18039915
10
542.56849009
20
716.70544666
10
542.17002206
20
717.1726692
10
541.70509027
20
717.57380771
10
541.18190659
20
717.90060312
10
540.60868289
20
718.14479639
10
539.99363103
20
718.29812845
10
539.3449629
20
718.35234024
10
499.34512705
20
718.46693354
10
498.69615895
20
718.41643927
10
498.08023866
20
718.26663376
10
497.50562522
20
718.02572887
10
496.98057771
20
717.70193647
10
496.51335517
20
717.30346844
10
496.11221667
20
716.83853665
10
495.78542125
20
716.31535297
10
495.54122799
20
715.74212927
10
495.38789593
20
715.12707742
10
495.33368413
20
714.47840929
0
LWPOLYLINE
5
12D
100
AcDbEntity
8
symbols
6
ByLayer
62
256
370
-1
100
AcDbPolyline
90
4
70
0
10
495.19216141
20
665.07861201
10
489.19218603
20
665.095801
10
489.31079009
20
706.49563111
10
495.31076547
20
706.47844211
0
LWPOLYLINE
5
12E
100
AcDbEntity
8
symbols
6
ByLayer
62
256
370
-1
100
AcDbPolyline
90
4
70
0
10
543.19196443
20
664.94110004
10
549.19193981
20
664.92391105
10
549.31054388
20
706.32374116
10
543.3105685
20
706.34093015
0
LWPOLYLINE
5
12F
100
AcDbEntity
8
symbols
6
ByLayer
62
256
370
-1
100
AcDbPolyline
90
2
70
0
10
495.2076315
20
670.47858985
10
543.20743453
20
670.34107789
0
LWPOLYLINE
5
130
100
AcDbEntity
8
symbols
6
ByLayer
62
256
370
-1
100
AcDbPolyline
90
24
70
1
10
602.64371351
20
658.69229909
10
650.64351654
20
658.55478713
10
650.80394716
20
714.55455732
10
650.75345289
20
715.20352542
10
650.60364737
20
715.81944572
10
650.36274248
20
716.39405915
10
650.03895009
20
716.91910666
10
649.64048206
20
717.3863292
10
649.17555027
20
717.78746771
10
648.65236659
20
718.11426312
10
648.07914289
20
718.35845639
10
647.46409103
20
718.51178845
10
646.8154229
20
718.56600024
10
606.81558705
20
718.68059354
10
606.16661895
20
718.63009927
10
605.55069866
20
718.48029376
10
604.97608522
20
718.23938887
10
604.45103771
20
717.91559647
10
603.98381517
20
717.51712844
10
603.58267667
20
717.05219665
10
603.25588125
20
716.52901297
10
603.01168799
20
715.95578927
10
602.85835593
20
715.34073742
10
602.80414413
20
714.69206929
0
LWPOLYLINE
5
131
100
AcDbEntity
8
symbols
6
ByLayer
62
256
370
-1
100
AcDbPolyline
90
4
70
0
10
602.66262141
20
665.29227201
10
596.66264603
20
665.309461
10
596.78125009
20
706.70929111
10
602.78122547
20
706.69210211
0
LWPOLYLINE
5
132
100
AcDbEntity
8
symbols
6
ByLayer
62
256
370
-1
100
AcDbPolyline
90
4
70
0
10
650.66242443
20
665.15476004
10
656.66239981
20
665.13757105
10
656.78100388
20
706.53740116
10
650.7810285
20
706.55459015
0
LWPOLYLINE
5
133
100
AcDbEntity
8
symbols
6
ByLayer
62
256
370
-1
100
AcDbPolyline
90
2
70
0
10
602.6780915
20
670.69224985
10
650.67789453
20
670.55473789
0
LWPOLYLINE
5
134
100
AcDbEntity
8
symbols
6
ByLayer
62
256
370
-1
100
AcDbPolyline
90
1
70
0
10
297.27748
20
1651.61489
0
LWPOLYLINE
5
135
100
AcDbEntity
8
symbols
6
ByLayer
62
256
370
-1
100
AcDbPolyline
90
4
70
1
10
282.456415
20
1621.36765
10
312.098545
20
1621.36765
10
312.098545
20
1651.61489
10
282.456415
20
1651.61489
0
LWPOLYLINE
5
136
100
AcDbEntity
8
symbols
6
ByLayer
62
256
370
-1
100
AcDbPolyline
90
1
70
0
10
351.69551759
20
1649.0992422
0
LWPOLYLINE
5
137
100
AcDbEntity
8
symbols
6
ByLayer
62
256
370
-1
100
AcDbPolyline
90
4
70
1
10
343.49705443
20
1616.42900044
10
372.48955038
20
1622.60079515
10
366.19176557
20
1652.18513956
10
337.19926962
20
1646.01334485
0
LWPOLYLINE
5
138
100
AcDbEntity
8
symbols
6
ByLayer
62
256
370
-1
100
AcDbPolyline
90
1
70
0
10
761.55677759
20
1090.0361522
0
LWPOLYLINE
5
139
100
AcDbEntity
8
symbols
6
ByLayer
62
256
370
-1
100
AcDbPolyline
90
4
70
1
10
753.35831443
20
1057.36591044
10
782.35081038
20
1063.53770515
10
776.05302557
20
1093.12204956
10
747.06052962
20
1086.95025485
0
LWPOLYLINE
5
13A
100
AcDbEntity
8
symbols
6
ByLayer
62
256
370
-1
100
AcDbPolyline
90
1
70
0
10
765.28719793
20
1008.23242278
0
LWPOLYLINE
5
13B
100
AcDbEntity
8
symbols
6
ByLayer
62
256
370
-1
100
AcDbPolyline
90
4
70
1
10
746.85737571
20
980.03843143
10
776.27430842
20
976.39152301
10
779.99566429
20
1006.40896857
10
750.57873158
20
1010.05587699
0
LWPOLYLINE
5
13C
100
AcDbEntity
8
symbols
6
ByLayer
62
256
370
-1
100
AcDbPolyline
90
121
70
0
10
158.92319642
20
1427.17217178
10
158.53395046
20
1425.44495217
10
158.12945555
20
1423.7225771
10
157.70971169
20
1422.00504658
10
157.27471888
20
1420.2923606
10
156.82447713
20
1418.58451917
10
156.35898643
20
1416.88152227
10
155.87824678
20
1415.18336993
10
155.38225819
20
1413.49006213
10
154.87102065
20
1411.80159887
10
154.34453416
20
1410.11798015
10
153.80279872
20
1408.43920598
10
153.24581434
20
1406.76527635
10
152.67358101
20
1405.09619127
10
152.08609873
20
1403.43195073
10
151.48336751
20
1401.77255474
10
150.86538733
20
1400.11800328
10
150.23215821
20
1398.46829638
10
149.58368014
20
1396.82343401
10
148.91995313
20
1395.18341619
10
148.24097717
20
1393.54824292
10
146.68118461
20
1393.78102141
10
145.12658396
20
1394.03230275
10
143.57717523
20
1394.30208694
10
142.03295842
20
1394.59037399
10
140.49393352
20
1394.89716388
10
138.96010054
20
1395.22245662
10
137.43145948
20
1395.56625222
10
135.90801033
20
1395.92855066
10
134.38975309
20
1396.30935195
10
132.87668778
20
1396.7086561
10
131.7229756
20
1397.03066867
10
130.57445534
20
1397.37118409
10
129.431127
20
1397.73020236
10
128.29299057
20
1398.10772348
10
127.16004606
20
1398.50374745
10
126.03229346
20
1398.91827427
10
124.90973278
20
1399.35130394
10
123.79236402
20
1399.80283646
10
122.68018717
20
1400.27287184
10
121.57320224
20
1400.76141006
10
121.29177054
20
1400.59782506
10
121.01593863
20
1400.46163473
10
120.7457065
20
1400.35283907
10
120.48107415
20
1400.27143808
10
120.22204158
20
1400.21743176
10
119.96860879
20
1400.19082012
10
119.72077578
20
1400.19160314
10
119.47854255
20
1400.21978084
10
119.24190911
20
1400.2753532
10
119.01087544
20
1400.35832024
10
118.25050804
20
1400.69524356
10
117.49574041
20
1401.05956156
10
116.74657257
20
1401.45127422
10
116.0030045
20
1401.87038156
10
115.26503622
20
1402.31688357
10
114.53266772
20
1402.79078024
10
113.805899
20
1403.29207159
10
113.08473006
20
1403.82075761
10
112.3691609
20
1404.3768383
10
111.65919152
20
1404.96031366
10
112.04000666
20
1406.71119677
10
112.43759565
20
1408.45675089
10
112.85195847
20
1410.196976
10
113.28309514
20
1411.93187212
10
113.73100565
20
1413.66143923
10
114.19569001
20
1415.38567735
10
114.6771482
20
1417.10458647
10
115.17538024
20
1418.8181666
10
115.69038612
20
1420.52641772
10
116.22216584
20
1422.22933985
10
116.7707194
20
1423.92693298
10
117.33604681
20
1425.61919711
10
117.91814806
20
1427.30613224
10
118.51702315
20
1428.98773837
10
119.13267208
20
1430.6640155
10
119.76509485
20
1432.33496364
10
120.41429147
20
1434.00058278
10
121.08026193
20
1435.66087292
10
121.76300623
20
1437.31583406
10
122.46252437
20
1438.96546621
10
123.37906461
20
1439.03220444
10
124.28436727
20
1439.07333912
10
125.17843233
20
1439.08887024
10
126.06125979
20
1439.07879781
10
126.93284967
20
1439.04312182
10
127.79320195
20
1438.98184228
10
128.64231664
20
1438.89495918
10
129.48019373
20
1438.78247253
10
130.30683323
20
1438.64438232
10
131.12223514
20
1438.48068856
10
131.3587911
20
1438.4151038
10
131.58410947
20
1438.32391549
10
131.79819025
20
1438.20712362
10
132.00103343
20
1438.0647282
10
132.19263902
20
1437.89672923
10
132.37300701
20
1437.70312669
10
132.54213742
20
1437.48392061
10
132.70003023
20
1437.23911096
10
132.84668545
20
1436.96869777
10
132.98210307
20
1436.67268101
10
134.16807135
20
1436.43275502
10
135.34760079
20
1436.17472232
10
136.52069141
20
1435.89858291
10
137.6873432
20
1435.60433679
10
138.84755616
20
1435.29198396
10
140.00133029
20
1434.96152442
10
141.14866559
20
1434.61295817
10
142.28956206
20
1434.24628521
10
143.42401971
20
1433.86150554
10
144.55203852
20
1433.45861916
10
146.01812904
20
1432.91145461
10
147.47778073
20
1432.34618336
10
148.9309936
20
1431.76280539
10
150.37776763
20
1431.16132072
10
151.81810283
20
1430.54172934
10
153.25199921
20
1429.90403124
10
154.67945676
20
1429.24822644
10
156.10047547
20
1428.57431493
10
157.51505536
20
1427.88229671
10
158.92319642
20
1427.17217178
0
LWPOLYLINE
5
13D
100
AcDbEntity
8
symbols
6
ByLayer
62
256
370
-1
100
AcDbPolyline
90
21
70
0
10
121.57320224
20
1400.76141006
10
122.28851228
20
1402.51095044
10
122.98857337
20
1404.26533536
10
123.67338552
20
1406.02456483
10
124.34294872
20
1407.78863884
10
124.99726297
20
1409.5575574
10
125.63632827
20
1411.3313205
10
126.26014463
20
1413.10992815
10
126.86871204
20
1414.89338033
10
127.4620305
20
1416.68167707
10
128.04010002
20
1418.47481834
10
128.60292059
20
1420.27280416
10
129.15049221
20
1422.07563453
10
129.68281488
20
1423.88330943
10
130.19988861
20
1425.69582888
10
130.70171339
20
1427.51319288
10
131.18828922
20
1429.33540142
10
131.6596161
20
1431.1624545
10
132.11569404
20
1432.99435213
10
132.55652303
20
1434.8310943
10
132.98210307
20
1436.67268101
0
LWPOLYLINE
5
13E
100
AcDbEntity
8
symbols
6
ByLayer
62
256
370
-1
100
AcDbPolyline
90
31
70
0
10
113.02842686
20
1403.85379002
10
113.25140782
20
1404.0486273
10
113.46039121
20
1404.25042825
10
113.65537705
20
1404.45919286
10
113.83636533
20
1404.67492114
10
114.00335606
20
1404.89761308
10
114.15634923
20
1405.12726869
10
114.29534484
20
1405.36388796
10
114.4203429
20
1405.6074709
10
114.5313434
20
1405.85801751
10
114.62834634
20
1406.11552778
10
116.02834905
20
1410.17784562
10
117.17866781
20
1413.53077949
10
118.13620218
20
1416.35342954
10
118.95785172
20
1418.82489588
10
119.70051601
20
1421.12427865
10
120.42109459
20
1423.43067798
10
121.17648705
20
1425.92319399
10
122.02359292
20
1428.78092683
10
123.01931179
20
1432.18297662
10
124.22054322
20
1436.30844349
10
124.2899464
20
1436.57472212
10
124.34389955
20
1436.84339249
10
124.38240265
20
1437.11445461
10
124.40545572
20
1437.38790848
10
124.41305874
20
1437.66375409
10
124.40521172
20
1437.94199145
10
124.38191466
20
1438.22262056
10
124.34316755
20
1438.50564141
10
124.28897041
20
1438.79105401
10
124.21932322
20
1439.07885835
0
LWPOLYLINE
5
13F
100
AcDbEntity
8
symbols
6
ByLayer
62
256
370
-1
100
AcDbPolyline
90
121
70
0
10
245.40168359
20
1282.97300409
10
247.15729572
20
1282.74360038
10
248.9094804
20
1282.49856809
10
250.65823765
20
1282.23790721
10
252.40356745
20
1281.96161774
10
254.14546982
20
1281.66969969
10
255.88394475
20
1281.36215306
10
257.61899223
20
1281.03897784
10
259.35061228
20
1280.70017404
10
261.07880488
20
1280.34574165
10
262.80357005
20
1279.97568068
10
264.52490777
20
1279.58999112
10
266.24281806
20
1279.18867298
10
267.95730091
20
1278.77172625
10
269.66835631
20
1278.33915094
10
271.37598428
20
1277.89094705
10
273.0801848
20
1277.42711457
10
274.78095789
20
1276.94765351
10
276.47830353
20
1276.45256386
10
278.17222174
20
1275.94184562
10
279.8627125
20
1275.41549881
10
279.77378291
20
1273.84094167
10
279.66595269
20
1272.26985984
10
279.53922185
20
1270.70225331
10
279.39359037
20
1269.1381221
10
279.22905828
20
1267.57746619
10
279.04562555
20
1266.02028559
10
278.8432922
20
1264.4665803
10
278.62205822
20
1262.91635032
10
278.38192361
20
1261.36959564
10
278.12288838
20
1259.82631628
10
277.90790459
20
1258.64795901
10
277.67402017
20
1257.47307705
10
277.42123513
20
1256.3016704
10
277.14954946
20
1255.13373905
10
276.85896316
20
1253.96928302
10
276.54947624
20
1252.80830229
10
276.22108869
20
1251.65079688
10
275.87380051
20
1250.49676677
10
275.50761171
20
1249.34621196
10
275.12252228
20
1248.19913247
10
275.31119756
20
1247.93386753
10
275.47208041
20
1247.67166959
10
275.60517084
20
1247.41253866
10
275.71046883
20
1247.15647474
10
275.7879744
20
1246.90347782
10
275.83768755
20
1246.65354791
10
275.85960826
20
1246.406685
10
275.85373655
20
1246.1628891
10
275.82007242
20
1245.9221602
10
275.75861585
20
1245.68449831
10
275.49275528
20
1244.89646654
10
275.19910228
20
1244.11150177
10
274.87765686
20
1243.32960401
10
274.528419
20
1242.55077325
10
274.15138872
20
1241.7750095
10
273.74656602
20
1241.00231275
10
273.31395088
20
1240.23268301
10
272.85354332
20
1239.46612028
10
272.36534333
20
1238.70262455
10
271.84935092
20
1237.94219583
10
270.07094699
20
1238.16103669
10
268.29631325
20
1238.39706898
10
266.5254497
20
1238.65029273
10
264.75835632
20
1238.92070791
10
262.99503313
20
1239.20831454
10
261.23548013
20
1239.51311261
10
259.47969731
20
1239.83510212
10
257.72768467
20
1240.17428308
10
255.97944222
20
1240.53065548
10
254.23496995
20
1240.90421932
10
252.49426787
20
1241.29497461
10
250.75733597
20
1241.70292134
10
249.02417425
20
1242.12805951
10
247.29478272
20
1242.57038912
10
245.56916137
20
1243.02991018
10
243.84731021
20
1243.50662268
10
242.12922923
20
1244.00052663
10
240.41491843
20
1244.51162201
10
238.70437782
20
1245.03990884
10
236.99760739
20
1245.58538712
10
236.84719852
20
1246.49196154
10
236.72331489
20
1247.38969079
10
236.6259565
20
1248.27857486
10
236.55512335
20
1249.15861375
10
236.51081544
20
1250.02980747
10
236.49303277
20
1250.89215601
10
236.50177534
20
1251.74565937
10
236.53704315
20
1252.59031756
10
236.5988362
20
1253.42613057
10
236.6871545
20
1254.25309841
10
236.73079603
20
1254.49466724
10
236.80096281
20
1254.72739089
10
236.89765483
20
1254.95126937
10
237.02087208
20
1255.16630267
10
237.17061458
20
1255.37249079
10
237.34688232
20
1255.56983374
10
237.5496753
20
1255.75833151
10
237.77899352
20
1255.9379841
10
238.03483698
20
1256.10879152
10
238.31720568
20
1256.27075376
10
238.44749344
20
1257.47371275
10
238.59640157
20
1258.67191848
10
238.76393005
20
1259.86537094
10
238.9500789
20
1261.05407014
10
239.15484812
20
1262.23801607
10
239.37823769
20
1263.41720874
10
239.62024763
20
1264.59164814
10
239.88087794
20
1265.76133428
10
240.16012861
20
1266.92626716
10
240.45799964
20
1268.08644677
10
240.8685764
20
1269.59649219
10
241.29777352
20
1271.10178435
10
241.74559101
20
1272.60232324
10
242.21202886
20
1274.09810887
10
242.69708707
20
1275.58914124
10
243.20076565
20
1277.07542034
10
243.72306459
20
1278.55694617
10
244.26398389
20
1280.03371874
10
244.82352356
20
1281.50573805
10
245.40168359
20
1282.97300409
0
LWPOLYLINE
5
140
100
AcDbEntity
8
symbols
6
ByLayer
62
256
370
-1
100
AcDbPolyline
90
21
70
0
10
275.12252228
20
1248.19913247
10
273.31481713
20
1248.75118509
10
271.50368454
20
1249.28760912
10
269.68912451
20
1249.80840457
10
267.87113704
20
1250.31357143
10
266.04972213
20
1250.80310971
10
264.22487978
20
1251.27701941
10
262.39660999
20
1251.73530052
10
260.56491276
20
1252.17795304
10
258.72978809
20
1252.60497699
10
256.89123598
20
1253.01637234
10
255.04925643
20
1253.41213911
10
253.20384944
20
1253.7922773
10
251.35501501
20
1254.15678691
10
249.50275314
20
1254.50566792
10
247.64706383
20
1254.83892036
10
245.78794708
20
1255.15654421
10
243.92540289
20
1255.45853947
10
242.05943126
20
1255.74490615
10
240.19003219
20
1256.01564425
10
238.31720568
20
1256.27075376
0
LWPOLYLINE
5
141
100
AcDbEntity
8
symbols
6
ByLayer
62
256
370
-1
100
AcDbPolyline
90
31
70
0
10
272.8258069
20
1239.40702814
10
272.61136456
20
1239.61122548
10
272.39126994
20
1239.80084626
10
272.16552304
20
1239.97589048
10
271.93412387
20
1240.13635814
10
271.69707242
20
1240.28224925
10
271.4543687
20
1240.4135638
10
271.2060127
20
1240.5303018
10
270.95200443
20
1240.63246323
10
270.69234388
20
1240.72004811
10
270.42703106
20
1240.79305644
10
266.2535558
20
1241.81508289
10
262.80935243
20
1242.65345154
10
259.91086196
20
1243.34841796
10
257.37452538
20
1243.94023772
10
255.0167837
20
1244.46916636
10
252.65407791
20
1244.97545947
10
250.10284901
20
1245.49937259
10
247.179538
20
1246.0811613
10
243.70058589
20
1246.76108115
10
239.48243366
20
1247.57938771
10
239.21091736
20
1247.62410916
10
238.93843452
20
1247.65322644
10
238.66498515
20
1247.66673955
10
238.39056925
20
1247.66464849
10
238.11518681
20
1247.64695327
10
237.83883784
20
1247.61365387
10
237.56152233
20
1247.56475031
10
237.28324029
20
1247.50024259
10
237.00399172
20
1247.42013069
10
236.72377661
20
1247.32441463
0
LWPOLYLINE
5
142
100
AcDbEntity
8
symbols
6
ByLayer
62
256
370
-1
100
AcDbPolyline
90
121
70
0
10
254.2984085
20
808.05956236
10
254.14773329
20
806.29544871
10
253.98129187
20
804.53406026
10
253.79908424
20
802.77539703
10
253.60111042
20
801.019459
10
253.38737038
20
799.26624617
10
253.15786414
20
797.51575856
10
252.9125917
20
795.76799616
10
252.65155304
20
794.02295896
10
252.37474819
20
792.28064697
10
252.08217712
20
790.54106018
10
251.77383986
20
788.80419861
10
251.44973638
20
787.07006224
10
251.1098667
20
785.33865108
10
250.75423082
20
783.60996513
10
250.38282872
20
781.88400439
10
249.99566043
20
780.16076886
10
249.59272592
20
778.44025853
10
249.17402522
20
776.72247341
10
248.7395583
20
775.0074135
10
248.28932518
20
773.29507879
10
246.71236649
20
773.31351593
10
245.13803451
20
773.35099018
10
243.56632927
20
773.40750155
10
241.99725074
20
773.48305003
10
240.43079894
20
773.57763563
10
238.86697387
20
773.69125835
10
237.30577552
20
773.82391818
10
235.7472039
20
773.97561513
10
234.191259
20
774.14634919
10
232.63794082
20
774.33612037
10
231.45114945
20
774.498201
10
230.26698481
20
774.67931875
10
229.08544689
20
774.87947361
10
227.9065357
20
775.0986656
10
226.73025123
20
775.33689469
10
225.55659349
20
775.59416091
10
224.38556247
20
775.87046423
10
223.21715818
20
776.16580468
10
222.05138061
20
776.48018224
10
220.88822976
20
776.81359691
10
220.6316664
20
776.61324948
10
220.37692429
20
776.44080382
10
220.12400342
20
776.29625993
10
219.87290381
20
776.1796178
10
219.62362545
20
776.09087744
10
219.37616833
20
776.03003885
10
219.13053247
20
775.99710202
10
218.88671785
20
775.99206696
10
218.64472448
20
776.01493366
10
218.40455237
20
776.06570214
10
217.60542125
20
776.29606138
10
216.80811138
20
776.55432238
10
216.01262277
20
776.84048515
10
215.2189554
20
777.15454969
10
214.42710928
20
777.496516
10
213.63708441
20
777.86638407
10
212.84888079
20
778.26415391
10
212.06249842
20
778.68982552
10
211.2779373
20
779.14339889
10
210.49519743
20
779.62487403
10
210.63430126
20
781.41128439
10
210.79074791
20
783.19469701
10
210.96453739
20
784.97511192
10
211.1556697
20
786.75252909
10
211.36414483
20
788.52694853
10
211.58996278
20
790.29837024
10
211.83312357
20
792.06679423
10
212.09362718
20
793.83222049
10
212.37147361
20
795.59464902
10
212.66666288
20
797.35407982
10
212.97919496
20
799.11051289
10
213.30906988
20
800.86394823
10
213.65628762
20
802.61438584
10
214.02084819
20
804.36182573
10
214.40275158
20
806.10626788
10
214.8019978
20
807.84771231
10
215.21858685
20
809.58615901
10
215.65251872
20
811.32160798
10
216.10379342
20
813.05405923
10
216.57241094
20
814.78351274
10
217.47135341
20
814.97430704
10
218.36264557
20
815.13820713
10
219.24628743
20
815.27521302
10
220.12227898
20
815.38532469
10
220.99062024
20
815.46854216
10
221.85131119
20
815.52486542
10
222.70435185
20
815.55429447
10
223.5497422
20
815.55682932
10
224.38748225
20
815.53246996
10
225.217572
20
815.48121639
10
225.46085058
20
815.44841982
10
225.69647886
20
815.38872904
10
225.92445684
20
815.30214405
10
226.14478452
20
815.18866486
10
226.35746189
20
815.04829146
10
226.56248897
20
814.88102385
10
226.75986574
20
814.68686203
10
226.94959221
20
814.46580601
10
227.13166838
20
814.21785577
10
227.30609425
20
813.94301133
10
228.51367571
20
813.86664204
10
229.71734123
20
813.77145848
10
230.91709081
20
813.65746064
10
232.11292446
20
813.52464853
10
233.30484218
20
813.37302214
10
234.49284396
20
813.20258148
10
235.67692981
20
813.01332655
10
236.85709972
20
812.80525734
10
238.0333537
20
812.57837386
10
239.20569174
20
812.3326761
10
240.73258512
20
811.99002896
10
242.25556257
20
811.62856755
10
243.77462408
20
811.24829186
10
245.28976966
20
810.8492019
10
246.8009993
20
810.43129766
10
248.30831301
20
809.99457915
10
249.81171078
20
809.53904636
10
251.31119262
20
809.0646993
10
252.80675853
20
808.57153797
10
254.2984085
20
808.05956236
0
LWPOLYLINE
5
143
100
AcDbEntity
8
symbols
6
ByLayer
62
256
370
-1
100
AcDbPolyline
90
21
70
0
10
220.88822976
20
776.81359691
10
221.35890194
20
778.64417816
10
221.81380791
20
780.47748461
10
222.25294768
20
782.31351627
10
222.67632124
20
784.15227314
10
223.0839286
20
785.99375522
10
223.47576975
20
787.83796251
10
223.85184469
20
789.684895
10
224.21215343
20
791.5345527
10
224.55669597
20
793.38693561
10
224.88547229
20
795.24204373
10
225.19848241
20
797.09987705
10
225.49572633
20
798.96043559
10
225.77720404
20
800.82371933
10
226.04291555
20
802.68972828
10
226.29286084
20
804.55846243
10
226.52703994
20
806.4299218
10
226.74545283
20
808.30410637
10
226.94809951
20
810.18101615
10
227.13497998
20
812.06065114
10
227.30609425
20
813.94301133
0
LWPOLYLINE
5
144
100
AcDbEntity
8
symbols
6
ByLayer
62
256
370
-1
100
AcDbPolyline
90
31
70
0
10
212.0022252
20
778.714892
10
212.19662991
20
778.93825019
10
212.3762199
20
779.16660324
10
212.54099518
20
779.39995115
10
212.69095576
20
779.63829391
10
212.82610162
20
779.88163154
10
212.94643278
20
780.12996402
10
213.05194922
20
780.38329136
10
213.14265096
20
780.64161356
10
213.21853798
20
780.90493061
10
213.2796103
20
781.17324252
10
214.11400508
20
785.38824183
10
214.79753384
20
788.86648668
10
215.36220437
20
791.79315245
10
215.84002446
20
794.35341452
10
216.26300189
20
796.73244824
10
216.66314446
20
799.11542899
10
217.07245995
20
801.68753216
10
217.52295615
20
804.6339331
10
218.04664086
20
808.13980719
10
218.67552185
20
812.39032981
10
218.7080582
20
812.6635742
10
218.72496277
20
812.93708644
10
218.72623556
20
813.21086654
10
218.71187658
20
813.48491449
10
218.68188582
20
813.7592303
10
218.63626328
20
814.03381396
10
218.57500896
20
814.30866548
10
218.49812287
20
814.58378485
10
218.40560499
20
814.85917208
10
218.29745534
20
815.13482716
0
LWPOLYLINE
5
145
100
AcDbEntity
8
symbols
6
ByLayer
62
256
370
-1
100
AcDbPolyline
90
121
70
0
10
569.19090834
20
1146.35426613
10
567.42318324
20
1146.25452671
10
565.65593155
20
1146.17078029
10
563.88915327
20
1146.10302685
10
562.12284841
20
1146.05126642
10
560.35701697
20
1146.01549897
10
558.59165894
20
1145.99572453
10
556.82677433
20
1145.99194307
10
555.06236313
20
1146.00415461
10
553.29842534
20
1146.03235915
10
551.53496097
20
1146.07655668
10
549.77197002
20
1146.13674721
10
548.00945248
20
1146.21293073
10
546.24740836
20
1146.30510724
10
544.48583765
20
1146.41327675
10
542.72474036
20
1146.53743925
10
540.96411648
20
1146.67759475
10
539.20396602
20
1146.83374325
10
537.44428898
20
1147.00588473
10
535.68508534
20
1147.19401922
10
533.92635513
20
1147.39814669
10
533.72210713
20
1148.96193102
10
533.53707641
20
1150.52580093
10
533.37126298
20
1152.08975644
10
533.22466684
20
1153.65379754
10
533.09728798
20
1155.21792423
10
532.98912641
20
1156.78213651
10
532.90018213
20
1158.34643438
10
532.83045514
20
1159.91081784
10
532.77994544
20
1161.4752869
10
532.74865302
20
1163.03984154
10
532.7416621
20
1164.23762909
10
532.75388847
20
1165.43550223
10
532.78533213
20
1166.63346096
10
532.83599308
20
1167.83150528
10
532.90587131
20
1169.02963519
10
532.99496683
20
1170.22785069
10
533.10327964
20
1171.42615179
10
533.23080973
20
1172.62453847
10
533.37755712
20
1173.82301075
10
533.54352178
20
1175.02156862
10
533.30897885
20
1175.24729736
10
533.10231553
20
1175.47515986
10
532.92353182
20
1175.70515613
10
532.77262772
20
1175.93728617
10
532.64960322
20
1176.17154997
10
532.55445834
20
1176.40794754
10
532.48719306
20
1176.64647887
10
532.44780739
20
1176.88714396
10
532.43630133
20
1177.12994282
10
532.45267488
20
1177.37487544
10
532.56797637
20
1178.19851462
10
532.71115746
20
1179.02428755
10
532.88221817
20
1179.85219426
10
533.08115848
20
1180.68223472
10
533.3079784
20
1181.51440895
10
533.56267794
20
1182.34871695
10
533.84525708
20
1183.18515871
10
534.15571582
20
1184.02373424
10
534.49405418
20
1184.86444353
10
534.86027215
20
1185.70728658
10
536.64843824
20
1185.82162758
10
538.43608358
20
1185.91837628
10
540.22320816
20
1185.99753269
10
542.00981198
20
1186.05909681
10
543.79589505
20
1186.10306863
10
545.58145736
20
1186.12944815
10
547.36649891
20
1186.13823539
10
549.1510197
20
1186.12943032
10
550.93501974
20
1186.10303297
10
552.71849903
20
1186.05904332
10
554.50145755
20
1185.99746137
10
556.28389532
20
1185.91828714
10
558.06581233
20
1185.8215206
10
559.84720859
20
1185.70716178
10
561.62808409
20
1185.57521066
10
563.40843883
20
1185.42566724
10
565.18827281
20
1185.25853153
10
566.96758604
20
1185.07380353
10
568.74637851
20
1184.87148323
10
570.52465023
20
1184.65157064
10
570.84037196
20
1183.78854121
10
571.12838911
20
1182.92929091
10
571.38870169
20
1182.07381975
10
571.62130969
20
1181.22212772
10
571.8262131
20
1180.37421483
10
572.00341194
20
1179.53008107
10
572.1529062
20
1178.68972645
10
572.27469589
20
1177.85315096
10
572.36878099
20
1177.02035461
10
572.43516152
20
1176.19133739
10
572.43701839
20
1175.94586512
10
572.41117068
20
1175.70417199
10
572.35761839
20
1175.46625799
10
572.27636153
20
1175.23212312
10
572.16740009
20
1175.00176739
10
572.03073407
20
1174.7751908
10
571.86636347
20
1174.55239334
10
571.67428829
20
1174.33337501
10
571.45450853
20
1174.11813583
10
571.2070242
20
1173.90667577
10
571.30180238
20
1172.70039955
10
571.37740199
20
1171.49534549
10
571.43382302
20
1170.29151359
10
571.47106548
20
1169.08890385
10
571.48912936
20
1167.88751628
10
571.48801467
20
1166.68735087
10
571.4677214
20
1165.48840762
10
571.42824955
20
1164.29068654
10
571.36959913
20
1163.09418762
10
571.29177013
20
1161.89891086
10
571.16798755
20
1160.33894666
10
571.02502638
20
1158.78020461
10
570.86288664
20
1157.22268473
10
570.68156833
20
1155.66638702
10
570.48107144
20
1154.11131146
10
570.26139597
20
1152.55745807
10
570.02254193
20
1151.00482684
10
569.76450931
20
1149.45341778
10
569.48729811
20
1147.90323087
10
569.19090834
20
1146.35426613
0
LWPOLYLINE
5
146
100
AcDbEntity
8
symbols
6
ByLayer
62
256
370
-1
100
AcDbPolyline
90
21
70
0
10
533.54352178
20
1175.02156862
10
535.42219946
20
1174.81389052
10
537.30135055
20
1174.62220543
10
539.18097506
20
1174.44651333
10
541.06107298
20
1174.28681422
10
542.94164432
20
1174.14310811
10
544.82268907
20
1174.01539499
10
546.70420724
20
1173.90367486
10
548.58619882
20
1173.80794773
10
550.46866382
20
1173.7282136
10
552.35160223
20
1173.66447246
10
554.23501406
20
1173.61672432
10
556.1188993
20
1173.58496917
10
558.00325796
20
1173.56920701
10
559.88809003
20
1173.56943785
10
561.77339552
20
1173.58566168
10
563.65917443
20
1173.61787851
10
565.54542675
20
1173.66608833
10
567.43215248
20
1173.73029115
10
569.31935163
20
1173.81048696
10
571.2070242
20
1173.90667577
0
LWPOLYLINE
5
147
100
AcDbEntity
8
symbols
6
ByLayer
62
256
370
-1
100
AcDbPolyline
90
31
70
0
10
534.1720273
20
1184.08694124
10
534.42058053
20
1183.92599603
10
534.67198838
20
1183.78042207
10
534.92625083
20
1183.65021936
10
535.1833679
20
1183.53538791
10
535.44333957
20
1183.43592771
10
535.70616586
20
1183.35183876
10
535.97184676
20
1183.28312107
10
536.24038227
20
1183.22977463
10
536.51177239
20
1183.19179944
10
536.78601712
20
1183.16919551
10
541.07657872
20
1182.93786249
10
544.61646988
20
1182.75193401
10
547.59352963
20
1182.60584976
10
550.19559699
20
1182.49404945
10
552.61051099
20
1182.41097277
10
555.02611065
20
1182.35105942
10
557.63023502
20
1182.30874911
10
560.6107231
20
1182.27848153
10
564.15541393
20
1182.25469639
10
568.45214654
20
1182.23183337
10
568.72724812
20
1182.23817588
10
569.00040932
20
1182.26003158
10
569.27163013
20
1182.29740047
10
569.54091056
20
1182.35028255
10
569.80825059
20
1182.41867783
10
570.07365024
20
1182.5025863
10
570.3371095
20
1182.60200795
10
570.59862837
20
1182.7169428
10
570.85820686
20
1182.84739085
10
571.11584495
20
1182.99335208
0
CIRCLE
5
148
100
AcDbEntity
8
symbols
6
ByLayer
62
256
370
-1
100
AcDbCircle
10
320.56262475
20
793.48641422
40
20.5381546
0
TEXT
5
149
100
AcDbEntity
8
text
6
ByLayer
62
256
370
-1
100
AcDbText
10
311.56262
20
783.48639
30
0
40
20
1
1
50
0
41
0.9
7
standard
72
1
11
320.56262
21
783.48639
31
0
100
AcDbText
0
CIRCLE
5
14A
100
AcDbEntity
8
symbols
6
ByLayer
62
256
370
-1
100
AcDbCircle
10
777.71606713
20
1265.30343082
40
20.5381546
0
TEXT
5
14B
100
AcDbEntity
8
text
6
ByLayer
62
256
370
-1
100
AcDbText
10
768.71607
20
1255.30342
30
0
40
20
1
2
50
0
41
0.9
7
standard
72
1
11
777.71607
21
1255.30342
31
0
100
AcDbText
0
LWPOLYLINE
5
14C
100
AcDbEntity
8
symbols
6
ByLayer
62
256
370
-1
100
AcDbPolyline
90
41
70
0
10
634.20034
20
1377.19001
10
641.49957374
20
1377.77692262
10
648.42382048
20
1379.47611043
10
654.88043086
20
1382.19524834
10
660.77675554
20
1385.84201128
10
666.02014515
20
1390.32407416
10
670.51795036
20
1395.54911192
10
674.1775218
20
1401.42479946
10
676.90621012
20
1407.8588117
10
678.61136597
20
1414.75882358
10
679.20034
20
1422.03251
10
678.61136597
20
1429.30619642
10
676.90621012
20
1436.2062083
10
674.1775218
20
1442.64022054
10
670.51795036
20
1448.51590808
10
666.02014515
20
1453.74094584
10
660.77675554
20
1458.22300872
10
654.88043086
20
1461.86977166
10
648.42382048
20
1464.58890957
10
641.49957374
20
1466.28809738
10
634.20034
20
1466.87501
10
626.90110626
20
1466.28809738
10
619.97685952
20
1464.58890957
10
613.52024914
20
1461.86977166
10
607.62392446
20
1458.22300872
10
602.38053485
20
1453.74094584
10
597.88272964
20
1448.51590808
10
594.2231582
20
1442.64022054
10
591.49446988
20
1436.2062083
10
589.78931403
20
1429.30619642
10
589.20034
20
1422.03251
10
589.78931403
20
1414.75882358
10
591.49446988
20
1407.8588117
10
594.2231582
20
1401.42479946
10
597.88272964
20
1395.54911192
10
602.38053485
20
1390.32407416
10
607.62392446
20
1385.84201128
10
613.52024914
20
1382.19524834
10
619.97685952
20
1379.47611043
10
626.90110626
20
1377.77692262
10
634.20034
20
1377.19001
0
CIRCLE
5
14D
100
AcDbEntity
8
symbols
6
ByLayer
62
256
370
-1
100
AcDbCircle
10
635.33822899
20
1420.53231266
40
20.5381546
0
TEXT
5
14E
100
AcDbEntity
8
text
6
ByLayer
62
256
370
-1
100
AcDbText
10
626.33823
20
1410.53229
30
0
40
20
1
3
50
0
41
0.9
7
standard
72
1
11
635.33823
21
1410.53229
31
0
100
AcDbText
0
CIRCLE
5
14F
100
AcDbEntity
8
symbols
6
ByLayer
62
256
370
-1
100
AcDbCircle
10
455.88482934
20
1300.45943668
40
20.5381546
0
TEXT
5
150
100
AcDbEntity
8
text
6
ByLayer
62
256
370
-1
100
AcDbText
10
446.88483
20
1290.45945
30
0
40
20
1
4
50
0
41
0.9
7
standard
72
1
11
455.88483
21
1290.45945
31
0
100
AcDbText
0
CIRCLE
5
151
100
AcDbEntity
8
symbols
6
ByLayer
62
256
370
-1
100
AcDbCircle
10
494.32388573
20
1623.51388004
40
20.5381546
0
TEXT
5
152
100
AcDbEntity
8
text
6
ByLayer
62
256
370
-1
100
AcDbText
10
485.3239
20
1613.5139
30
0
40
20
1
5
50
0
41
0.9
7
standard
72
1
11
494.3239
21
1613.5139
31
0
100
AcDbText
0
CIRCLE
5
153
100
AcDbEntity
8
symbols
6
ByLayer
62
256
370
-1
100
AcDbCircle
10
560.8519619
20
858.26034
40
20.5381546
0
TEXT
5
154
100
AcDbEntity
8
text
6
ByLayer
62
256
370
-1
100
AcDbText
10
551.85196
20
848.26039
30
0
40
20
1
6
50
0
41
0.9
7
standard
72
1
11
560.85196
21
848.26039
31
0
100
AcDbText
0
LWPOLYLINE
5
155
100
AcDbEntity
8
symbols
6
ByLayer
62
256
370
-1
100
AcDbPolyline
90
44
70
1
10
243.39199
20
757.07894
10
243.45743156
20
756.26791403
10
243.64689332
20
755.49855328
10
243.95008091
20
754.78115213
10
244.35669996
20
754.12600494
10
244.85645609
20
753.54340609
10
245.43905494
20
753.04364996
10
246.09420213
20
752.63703091
10
246.81160328
20
752.33384332
10
247.58096403
20
752.14438156
10
248.39199
20
752.07894
10
398.39199
20
752.07894
10
399.20301597
20
752.14438156
10
399.97237672
20
752.33384332
10
400.68977787
20
752.63703091
10
401.34492506
20
753.04364996
10
401.92752391
20
753.54340609
10
402.42728004
20
754.12600494
10
402.83389909
20
754.78115213
10
403.13708668
20
755.49855328
10
403.32654844
20
756.26791403
10
403.39199
20
757.07894
10
403.39199
20
827.07894
10
403.32654844
20
827.88996597
10
403.13708668
20
828.65932672
10
402.83389909
20
829.37672787
10
402.42728004
20
830.03187506
10
401.92752391
20
830.61447391
10
401.34492506
20
831.11423004
10
400.68977787
20
831.52084909
10
399.97237672
20
831.82403668
10
399.20301597
20
832.01349844
10
398.39199
20
832.07894
10
248.39199
20
832.07894
10
247.58096403
20
832.01349844
10
246.81160328
20
831.82403668
10
246.09420213
20
831.52084909
10
245.43905494
20
831.11423004
10
244.85645609
20
830.61447391
10
244.35669996
20
830.03187506
10
243.95008091
20
829.37672787
10
243.64689332
20
828.65932672
10
243.45743156
20
827.88996597
10
243.39199
20
827.07894
0
LWPOLYLINE
5
156
100
AcDbEntity
8
symbols
6
ByLayer
62
256
370
-1
100
AcDbPolyline
90
1
70
0
10
753.91064
20
1216.46854
0
LWPOLYLINE
5
157
100
AcDbEntity
8
symbols
6
ByLayer
62
256
370
-1
100
AcDbPolyline
90
4
70
1
10
703.96376
20
1201.46854
10
803.85752
20
1201.46854
10
803.85752
20
1216.46854
10
703.96376
20
1216.46854
0
LINE
5
158
100
AcDbEntity
8
symbols
6
ByLayer
62
256
370
-1
100
AcDbLine
10
744.48625
20
1667.40777
11
158.87384
21
1667.40777
0
LINE
5
159
100
AcDbEntity
8
symbols
6
ByLayer
62
256
370
-1
100
AcDbLine
10
744.48625
20
1682.40777
11
158.87384
21
1682.40777
0
LINE
5
15A
100
AcDbEntity
8
symbols
6
ByLayer
62
256
370
-1
100
AcDbLine
10
158.87384
20
1679.90777
11
744.48625
21
1679.90777
0
LINE
5
15B
100
AcDbEntity
8
symbols
6
ByLayer
62
256
370
-1
100
AcDbLine
10
158.87384
20
1669.90777
11
744.48625
21
1669.90777
0
LINE
5
15C
100
AcDbEntity
8
symbols
6
ByLayer
62
256
370
-1
100
AcDbLine
10
168.87384
20
1669.90777
11
168.87384
21
1679.90777
0
LINE
5
15D
100
AcDbEntity
8
symbols
6
ByLayer
62
256
370
-1
100
AcDbLine
10
734.48625
20
1669.90777
11
734.48625
21
1679.90777
0
LINE
5
15E
100
AcDbEntity
8
symbols
6
ByLayer
62
256
370
-1
100
AcDbLine
10
168.87384
20
1674.90777
11
734.48625
21
1674.90777
0
LWPOLYLINE
5
15F
100
AcDbEntity
8
symbols
6
ByLayer
62
256
370
-1
100
AcDbPolyline
90
2
70
0
10
789.23939
20
264.90777
10
699.23939
20
264.90777
0
LWPOLYLINE
5
160
100
AcDbEntity
8
symbols
6
ByLayer
62
256
370
-1
100
AcDbPolyline
90
3
70
0
10
699.23939
20
254.90777
10
704.23939
20
254.90777
10
704.23939
20
264.90777
0
LWPOLYLINE
5
161
100
AcDbEntity
8
symbols
6
ByLayer
62
256
370
-1
100
AcDbPolyline
90
14
70
0
10
789.23939
20
254.90777
10
784.23939
20
254.90777
10
784.23939
20
264.90777
10
784.23939
20
344.90777
10
771.26297446
20
343.86070506
10
758.95320249
20
340.82931688
10
747.47478403
20
335.97831542
10
736.99242905
20
329.47241064
10
727.67084751
20
321.47631249
10
719.67474936
20
312.15473095
10
713.16884458
20
301.67237597
10
708.31784312
20
290.19395751
10
705.28645494
20
277.88418554
10
704.23939
20
264.90777
0
LINE
5
162
100
AcDbEntity
8
symbols
6
ByLayer
62
256
370
-1
100
AcDbLine
10
779.23939
20
264.90777
11
779.23939
21
344.75136711
0
LWPOLYLINE
5
163
100
AcDbEntity
8
symbols
6
ByLayer
62
256
370
-1
100
AcDbPolyline
90
2
70
0
10
789.09792757
20
749.21063745
10
699.09825003
20
749.45155995
0
LWPOLYLINE
5
164
100
AcDbEntity
8
symbols
6
ByLayer
62
256
370
-1
100
AcDbPolyline
90
3
70
0
10
699.07148087
20
739.45159578
10
704.07146295
20
739.43821119
10
704.09823212
20
749.43817536
0
LWPOLYLINE
5
165
100
AcDbEntity
8
symbols
6
ByLayer
62
256
370
-1
100
AcDbPolyline
90
14
70
0
10
789.0711584
20
739.21067328
10
784.07117631
20
739.22405786
10
784.09794548
20
749.22402203
10
784.31209881
20
829.22373539
10
771.33292687
20
828.21141099
10
759.01508422
20
825.2129859
10
747.52372116
20
820.39272859
10
737.02398797
20
813.91490751
10
727.68103494
20
805.94379112
10
719.66001235
20
796.64364786
10
713.12607049
20
786.1787462
10
708.24435964
20
774.7133546
10
705.18003009
20
762.4117415
10
704.09823212
20
749.43817536
0
LINE
5
166
100
AcDbEntity
8
symbols
6
ByLayer
62
256
370
-1
100
AcDbLine
10
779.0979634
20
749.23740661
11
779.31169805
21
829.08071765
0
LWPOLYLINE
5
167
100
AcDbEntity
8
symbols
6
ByLayer
62
256
370
-1
100
AcDbPolyline
90
2
70
0
10
119.17351087
20
739.75636578
10
209.1731884
20
739.51544328
0
LWPOLYLINE
5
168
100
AcDbEntity
8
symbols
6
ByLayer
62
256
370
-1
100
AcDbPolyline
90
3
70
0
10
209.19995757
20
749.51540745
10
204.19997548
20
749.52879203
10
204.17320631
20
739.52882786
0
LWPOLYLINE
5
169
100
AcDbEntity
8
symbols
6
ByLayer
62
256
370
-1
100
AcDbPolyline
90
14
70
0
10
119.20028003
20
749.75632995
10
124.20026212
20
749.74294536
10
124.17349295
20
739.74298119
10
123.95933962
20
659.74326783
10
136.93851157
20
660.75559223
10
149.25635421
20
663.75401732
10
160.74771727
20
668.57427463
10
171.24745046
20
675.05209571
10
180.59040349
20
683.0232121
10
188.61142608
20
692.32335536
10
195.14536794
20
702.78825702
10
200.02707879
20
714.25364862
10
203.09140834
20
726.55526172
10
204.17320631
20
739.52882786
0
LINE
5
16A
100
AcDbEntity
8
symbols
6
ByLayer
62
256
370
-1
100
AcDbLine
10
129.17347504
20
739.72959661
11
128.95974038
21
659.88628557
0
LWPOLYLINE
5
16B
100
AcDbEntity
8
symbols
6
ByLayer
62
256
370
-1
100
AcDbPolyline
90
2
70
0
10
119.39224003
20
1214.38809995
10
209.39191757
20
1214.14717745
0
LWPOLYLINE
5
16C
100
AcDbEntity
8
symbols
6
ByLayer
62
256
370
-1
100
AcDbPolyline
90
3
70
0
10
209.3651484
20
1204.14721328
10
204.36516631
20
1204.16059786
10
204.39193548
20
1214.16056203
0
LWPOLYLINE
5
16D
100
AcDbEntity
8
symbols
6
ByLayer
62
256
370
-1
100
AcDbPolyline
90
14
70
0
10
119.36547087
20
1204.38813578
10
124.36545295
20
1204.37475119
10
124.39222212
20
1214.37471536
10
124.60637545
20
1294.37442873
10
137.57994159
20
1293.29263075
10
149.88155469
20
1290.2283012
10
161.34694629
20
1285.34659035
10
171.81184795
20
1278.81264849
10
181.1119912
20
1270.7916259
10
189.0831076
20
1261.44867287
10
195.56092868
20
1250.94893968
10
200.38118599
20
1239.45757662
10
203.37961108
20
1227.13973398
10
204.39193548
20
1214.16056203
0
LINE
5
16E
100
AcDbEntity
8
symbols
6
ByLayer
62
256
370
-1
100
AcDbLine
10
129.3922042
20
1214.36133078
11
129.60593886
21
1294.20464182
0
TEXT
5
16F
100
AcDbEntity
8
text
6
ByLayer
62
256
370
-1
100
AcDbText
10
703.33285
20
684.28768
30
0
40
14
1
Entrance door
50
0
41
0.9
7
standard
72
1
11
785.23285
21
684.28768
31
0
100
AcDbText
0
LINE
5
170
100
AcDbEntity
8
text
6
ByLayer
62
256
370
-1
100
AcDbLine
10
696.33285
20
705.98768
11
870.63285
21
705.98768
0
LINE
5
171
100
AcDbEntity
8
text
6
ByLayer
62
256
370
-1
100
AcDbLine
10
870.63285
20
677.28768
11
870.63285
21
705.98768
0
LINE
5
172
100
AcDbEntity
8
text
6
ByLayer
62
256
370
-1
100
AcDbLine
10
870.63285
20
677.28768
11
696.33285
21
677.28768
0
LINE
5
173
100
AcDbEntity
8
text
6
ByLayer
62
256
370
-1
100
AcDbLine
10
696.33285
20
705.98768
11
696.33285
21
677.28768
0
TEXT
5
174
100
AcDbEntity
8
text
6
ByLayer
62
256
370
-1
100
AcDbText
10
84.40719
20
778.04428
30
0
40
14
1
Exit door
50
0
41
0.9
7
standard
72
1
11
141.10719
21
778.04428
31
0
100
AcDbText
0
LINE
5
175
100
AcDbEntity
8
text
6
ByLayer
62
256
370
-1
100
AcDbLine
10
77.40719
20
799.74428
11
201.30719
21
799.74428
0
LINE
5
176
100
AcDbEntity
8
text
6
ByLayer
62
256
370
-1
100
AcDbLine
10
201.30719
20
771.04428
11
201.30719
21
799.74428
0
LINE
5
177
100
AcDbEntity
8
text
6
ByLayer
62
256
370
-1
100
AcDbLine
10
201.30719
20
771.04428
11
77.40719
21
771.04428
0
LINE
5
178
100
AcDbEntity
8
text
6
ByLayer
62
256
370
-1
100
AcDbLine
10
77.40719
20
799.74428
11
77.40719
21
771.04428
0
TEXT
5
179
100
AcDbEntity
8
text
6
ByLayer
62
256
370
-1
100
AcDbText
10
538.78883
20
998.35255
30
0
40
14
1
Living room
50
0
41
0.9
7
standard
72
1
11
608.08883
21
998.35255
31
0
100
AcDbText
0
LINE
5
17A
100
AcDbEntity
8
text
6
ByLayer
62
256
370
-1
100
AcDbLine
10
531.78883
20
1020.05255
11
680.88883
21
1020.05255
0
LINE
5
17B
100
AcDbEntity
8
text
6
ByLayer
62
256
370
-1
100
AcDbLine
10
680.88883
20
991.35255
11
680.88883
21
1020.05255
0
LINE
5
17C
100
AcDbEntity
8
text
6
ByLayer
62
256
370
-1
100
AcDbLine
10
680.88883
20
991.35255
11
531.78883
21
991.35255
0
LINE
5
17D
100
AcDbEntity
8
text
6
ByLayer
62
256
370
-1
100
AcDbLine
10
531.78883
20
1020.05255
11
531.78883
21
991.35255
0
TEXT
5
17E
100
AcDbEntity
8
text
6
ByLayer
62
256
370
-1
100
AcDbText
10
522.18174
20
1510.91161
30
0
40
14
1
Kitchen
50
0
41
0.9
7
standard
72
1
11
566.28174
21
1510.91161
31
0
100
AcDbText
0
LINE
5
17F
100
AcDbEntity
8
text
6
ByLayer
62
256
370
-1
100
AcDbLine
10
515.18174
20
1532.61161
11
613.88174
21
1532.61161
0
LINE
5
180
100
AcDbEntity
8
text
6
ByLayer
62
256
370
-1
100
AcDbLine
10
613.88174
20
1503.91161
11
613.88174
21
1532.61161
0
LINE
5
181
100
AcDbEntity
8
text
6
ByLayer
62
256
370
-1
100
AcDbLine
10
613.88174
20
1503.91161
11
515.18174
21
1503.91161
0
LINE
5
182
100
AcDbEntity
8
text
6
ByLayer
62
256
370
-1
100
AcDbLine
10
515.18174
20
1532.61161
11
515.18174
21
1503.91161
0
TEXT
5
183
100
AcDbEntity
8
text
6
ByLayer
62
256
370
-1
100
AcDbText
10
223.40717
20
1489.49529
30
0
40
14
1
Bedroom
50
0
41
0.9
7
standard
72
1
11
267.50717
21
1489.49529
31
0
100
AcDbText
0
LINE
5
184
100
AcDbEntity
8
text
6
ByLayer
62
256
370
-1
100
AcDbLine
10
216.40717
20
1511.19529
11
315.10717
21
1511.19529
0
LINE
5
185
100
AcDbEntity
8
text
6
ByLayer
62
256
370
-1
100
AcDbLine
10
315.10717
20
1482.49529
11
315.10717
21
1511.19529
0
LINE
5
186
100
AcDbEntity
8
text
6
ByLayer
62
256
370
-1
100
AcDbLine
10
315.10717
20
1482.49529
11
216.40717
21
1482.49529
0
LINE
5
187
100
AcDbEntity
8
text
6
ByLayer
62
256
370
-1
100
AcDbLine
10
216.40717
20
1511.19529
11
216.40717
21
1482.49529
0
TEXT
5
188
100
AcDbEntity
8
text
6
ByLayer
62
256
370
-1
100
AcDbText
10
211.6153
20
968.50706
30
0
40
14
1
Office
50
0
41
0.9
7
standard
72
1
11
249.4153
21
968.50706
31
0
100
AcDbText
0
LINE
5
189
100
AcDbEntity
8
text
6
ByLayer
62
256
370
-1
100
AcDbLine
10
204.6153
20
990.20706
11
290.7153
21
990.20706
0
LINE
5
18A
100
AcDbEntity
8
text
6
ByLayer
62
256
370
-1
100
AcDbLine
10
290.7153
20
961.50706
11
290.7153
21
990.20706
0
LINE
5
18B
100
AcDbEntity
8
text
6
ByLayer
62
256
370
-1
100
AcDbLine
10
290.7153
20
961.50706
11
204.6153
21
961.50706
0
LINE
5
18C
100
AcDbEntity
8
text
6
ByLayer
62
256
370
-1
100
AcDbLine
10
204.6153
20
990.20706
11
204.6153
21
961.50706
0
TEXT
5
18D
100
AcDbEntity
8
text
6
ByLayer
62
256
370
-1
100
AcDbText
10
43.6
20
145.6
30
0
40
14
1
Objects locations:
50
0
41
0.9
7
standard
72
1
11
157
21
145.6
31
0
100
AcDbText
0
TEXT
5
18E
100
AcDbEntity
8
text
6
ByLayer
62
256
370
-1
100
AcDbText
10
94
20
127.4
30
0
40
14
1
1 - Drinks
50
0
41
0.9
7
standard
72
1
11
157
21
127.4
31
0
100
AcDbText
0
TEXT
5
18F
100
AcDbEntity
8
text
6
ByLayer
62
256
370
-1
100
AcDbText
10
56.2
20
109.2
30
0
40
14
1
2 - Pantry Items
50
0
41
0.9
7
standard
72
1
11
157
21
109.2
31
0
100
AcDbText
0
TEXT
5
190
100
AcDbEntity
8
text
6
ByLayer
62
256
370
-1
100
AcDbText
10
94
20
91
30
0
40
14
1
3 - Fruits
50
0
41
0.9
7
standard
72
1
11
157
21
91
31
0
100
AcDbText
0
TEXT
5
191
100
AcDbEntity
8
text
6
ByLayer
62
256
370
-1
100
AcDbText
10
81.4
20
72.8
30
0
40
14
1
4 - Cutlery 
50
0
41
0.9
7
standard
72
1
11
157
21
72.8
31
0
100
AcDbText
0
TEXT
5
192
100
AcDbEntity
8
text
6
ByLayer
62
256
370
-1
100
AcDbText
10
24.7
20
54.6
30
0
40
14
1
5 - Cleaning Supplies
50
0
41
0.9
7
standard
72
1
11
157
21
54.6
31
0
100
AcDbText
0
TEXT
5
193
100
AcDbEntity
8
text
6
ByLayer
62
256
370
-1
100
AcDbText
10
94
20
36.4
30
0
40
14
1
6 - Snacks
50
0
41
0.9
7
standard
72
1
11
157
21
36.4
31
0
100
AcDbText
0
LINE
5
194
100
AcDbEntity
8
text
6
ByLayer
62
256
370
-1
100
AcDbLine
10
17.7
20
167.3
11
292.8
21
167.3
0
LINE
5
195
100
AcDbEntity
8
text
6
ByLayer
62
256
370
-1
100
AcDbLine
10
292.8
20
29.4
11
292.8
21
167.3
0
LINE
5
196
100
AcDbEntity
8
text
6
ByLayer
62
256
370
-1
100
AcDbLine
10
292.8
20
29.4
11
17.7
21
29.4
0
LINE
5
197
100
AcDbEntity
8
text
6
ByLayer
62
256
370
-1
100
AcDbLine
10
17.7
20
167.3
11
17.7
21
29.4
0
ENDSEC
0
SECTION
2
OBJECTS
0
DICTIONARY
5
C
330
0
100
AcDbDictionary
281
1
3
ACAD_GROUP
350
D
0
DICTIONARY
5
D
330
C
100
AcDbDictionary
281
1
0
ENDSEC
0
EOF
